<svg width="14" height="14" viewBox="0 0 14 14" fill="none" xmlns="http://www.w3.org/2000/svg">
<path d="M7.00001 2.33331C7.61885 2.33331 8.21234 2.57915 8.64993 3.01673C9.08751 3.45432 9.33334 4.04781 9.33334 4.66665C9.33334 5.28549 9.08751 5.87898 8.64993 6.31656C8.21234 6.75415 7.61885 6.99998 7.00001 6.99998C6.38117 6.99998 5.78768 6.75415 5.35009 6.31656C4.91251 5.87898 4.66668 5.28549 4.66668 4.66665C4.66668 4.04781 4.91251 3.45432 5.35009 3.01673C5.78768 2.57915 6.38117 2.33331 7.00001 2.33331V2.33331ZM7.00001 8.16665C9.57834 8.16665 11.6667 9.21081 11.6667 10.5V11.6666H2.33334V10.5C2.33334 9.21081 4.42168 8.16665 7.00001 8.16665Z" fill="#023E7D"/>
</svg>
