<svg width="378" height="302" viewBox="0 0 378 302" fill="none" xmlns="http://www.w3.org/2000/svg">
<rect width="378" height="302" fill="#023E7D"/>
<path d="M201.233 248.251H225.382V158.309H201.233V248.251Z" fill="white"/>
<path d="M205.251 248.251H201.233V240.153H209.468L205.251 248.251Z" fill="white"/>
<path d="M299.52 248.251H323.669V158.309H299.52V248.251Z" fill="#EFF5F9"/>
<path d="M201.233 245.141H303.029V158.309H201.233V245.141Z" fill="#EFF5F9"/>
<path d="M204.356 185.967H299.913V162.155H204.356V185.967Z" fill="#C9E0EF"/>
<path d="M247.618 169.544H256.644C260.566 169.544 264.315 166.606 267.012 161.419H237.25C239.946 166.62 243.696 169.544 247.618 169.544Z" fill="#023E7D"/>
<path d="M299.011 248.251H303.029V240.153H294.794L299.011 248.251Z" fill="#EFF5F9"/>
<path d="M204.356 213.631H299.913V189.819H204.356V213.631Z" fill="#C9E0EF"/>
<path d="M247.618 197.215H256.644C260.566 197.215 264.315 194.278 267.012 189.09H237.25C239.946 194.312 243.696 197.215 247.618 197.215Z" fill="#023E7D"/>
<path d="M204.356 241.296H299.913V217.484H204.356V241.296Z" fill="#C9E0EF"/>
<path d="M247.618 224.88H256.644C260.566 224.88 264.315 221.942 267.012 216.755H237.25C239.946 221.942 243.696 224.88 247.618 224.88Z" fill="#023E7D"/>
<path d="M70.6572 137.91H162.877V44.5963L70.6572 44.5963L70.6572 137.91Z" fill="#E6E6E6"/>
<path d="M64.252 137.91H161.177V44.5963L64.252 44.5963L64.252 137.91Z" fill="#EFF5F9"/>
<path d="M153.066 129.791V52.7147L72.3842 52.7147V129.791H153.066Z" fill="#023E7D"/>
<path d="M112.164 62.904L97.3586 77.7373C93.7807 81.3241 91.7715 86.1834 91.7715 91.2496C91.7715 96.3158 93.7807 101.175 97.3586 104.762L112.164 119.575C112.237 119.647 112.322 119.704 112.417 119.744C112.511 119.783 112.612 119.803 112.715 119.803C112.817 119.803 112.918 119.783 113.013 119.744C113.107 119.704 113.193 119.647 113.265 119.575L128.078 104.762C131.656 101.175 133.665 96.3158 133.665 91.2496C133.665 86.1834 131.656 81.3241 128.078 77.7373L113.272 62.904C113.124 62.759 112.925 62.6778 112.718 62.6778C112.511 62.6778 112.312 62.759 112.164 62.904ZM98.4594 103.634C95.1744 100.34 93.3296 95.8775 93.3296 91.2255C93.3296 86.5735 95.1744 82.1114 98.4594 78.8174V103.634ZM126.977 103.634V78.845C130.262 82.1389 132.107 86.601 132.107 91.253C132.107 95.905 130.262 100.367 126.977 103.661V103.634Z" fill="#EFF5F9"/>
<path d="M296.913 126.2H245.389L242.451 156.623H293.975L296.913 126.2Z" fill="#001845"/>
<path d="M293.975 156.623L293.769 158.309H242.238L242.451 156.623H293.975Z" fill="#001845"/>
<path d="M295.331 126.2H243.806L240.862 156.623H292.386L295.331 126.2Z" fill="#C9E0EF"/>
<path d="M291.347 154.642L293.5 128.264C293.506 128.176 293.494 128.088 293.464 128.005C293.435 127.923 293.389 127.847 293.329 127.782C293.269 127.718 293.196 127.666 293.116 127.631C293.035 127.595 292.949 127.577 292.861 127.576H245.492C245.329 127.575 245.173 127.636 245.053 127.746C244.933 127.855 244.859 128.006 244.845 128.168L242.664 154.539C242.659 154.627 242.671 154.716 242.701 154.799C242.731 154.882 242.778 154.958 242.838 155.023C242.899 155.087 242.972 155.139 243.053 155.174C243.135 155.209 243.222 155.227 243.311 155.227H290.68C290.845 155.234 291.007 155.178 291.131 155.069C291.256 154.96 291.333 154.807 291.347 154.642Z" fill="#EFF5F9"/>
<path d="M278.963 156.623L278.757 158.309H222.017L222.224 156.623H278.963Z" fill="#001845"/>
<path d="M209.702 109.936L306.456 109.936V45.6146L209.702 45.6146V109.936Z" fill="#EFF5F9"/>
<path d="M207.555 109.936L304.309 109.936V45.6146L207.555 45.6146V109.936Z" fill="#EFF5F9"/>
<path d="M300.449 105.601V49.9558L211.415 49.9558V105.601H300.449Z" fill="#023E7D"/>
<path d="M213.032 105.594V49.949H211.408V105.594H213.032Z" fill="#EFF5F9"/>
<path d="M209.152 98.219L302.713 98.219V92.3986L209.152 92.3986V98.219Z" fill="#EFF5F9"/>
<path d="M203.345 38.4456H310.673C310.829 38.4474 310.979 38.5103 311.089 38.6209C311.2 38.7315 311.263 38.8809 311.265 39.0373C311.265 39.1942 311.202 39.3447 311.091 39.4557C310.98 39.5666 310.83 39.629 310.673 39.629H203.345C203.267 39.6299 203.189 39.6152 203.116 39.5859C203.044 39.5566 202.978 39.5132 202.922 39.4581C202.866 39.4031 202.822 39.3375 202.792 39.2653C202.762 39.1931 202.746 39.1156 202.746 39.0373C202.748 38.8797 202.812 38.7292 202.924 38.6185C203.036 38.5077 203.187 38.4456 203.345 38.4456Z" fill="#EFF5F9"/>
<path d="M201.267 39.0373C201.267 39.3309 201.354 39.618 201.517 39.8622C201.68 40.1064 201.912 40.2969 202.183 40.4096C202.454 40.5222 202.753 40.5521 203.041 40.4953C203.329 40.4385 203.593 40.2977 203.802 40.0905C204.01 39.8834 204.152 39.6192 204.21 39.3314C204.268 39.0436 204.24 38.745 204.128 38.4733C204.017 38.2017 203.827 37.9691 203.584 37.805C203.34 37.6409 203.054 37.5526 202.76 37.5512C202.564 37.5503 202.37 37.5881 202.189 37.6623C202.008 37.7366 201.844 37.8459 201.705 37.984C201.566 38.1221 201.456 38.2862 201.381 38.467C201.306 38.6477 201.267 38.8415 201.267 39.0373Z" fill="#EFF5F9"/>
<path d="M305.651 42.3672C305.862 42.3672 306.064 42.2843 306.215 42.1363C306.366 41.9883 306.452 41.7871 306.456 41.576V39.856C306.456 39.6425 306.371 39.4378 306.22 39.2868C306.069 39.1358 305.864 39.051 305.651 39.051C305.545 39.051 305.441 39.0719 305.344 39.1124C305.246 39.153 305.158 39.2124 305.084 39.2872C305.01 39.3621 304.951 39.4509 304.911 39.5485C304.872 39.6461 304.852 39.7506 304.853 39.856V41.576C304.856 41.7859 304.942 41.9861 305.091 42.1339C305.24 42.2817 305.441 42.3654 305.651 42.3672Z" fill="#EFF5F9"/>
<path d="M212.303 42.3672C212.508 42.3585 212.703 42.272 212.848 42.1251C212.992 41.9782 213.075 41.7819 213.08 41.576V39.856C213.08 39.6425 212.995 39.4378 212.844 39.2868C212.693 39.1358 212.489 39.051 212.275 39.051C212.17 39.051 212.065 39.0719 211.968 39.1124C211.871 39.153 211.783 39.2124 211.708 39.2872C211.634 39.3621 211.576 39.4509 211.536 39.5485C211.496 39.6461 211.476 39.7506 211.477 39.856V41.576C211.479 41.6823 211.502 41.7872 211.544 41.8846C211.587 41.9821 211.648 42.0701 211.725 42.1437C211.802 42.2172 211.892 42.2749 211.991 42.3132C212.091 42.3516 212.196 42.3699 212.303 42.3672Z" fill="#EFF5F9"/>
<path opacity="0.4" d="M204 101.651L303.175 101.651V39.16L204 39.16V101.651Z" fill="#C9E0EF"/>
<path d="M294.615 39.0373C294.615 39.3312 294.702 39.6185 294.865 39.8629C295.029 40.1073 295.261 40.2978 295.532 40.4102C295.804 40.5227 296.103 40.5521 296.391 40.4948C296.679 40.4375 296.944 40.2959 297.152 40.0881C297.36 39.8803 297.501 39.6155 297.559 39.3272C297.616 39.0389 297.587 38.7401 297.474 38.4686C297.362 38.197 297.171 37.9649 296.927 37.8016C296.682 37.6384 296.395 37.5512 296.101 37.5512C295.707 37.5512 295.329 37.7078 295.05 37.9865C294.772 38.2652 294.615 38.6431 294.615 39.0373Z" fill="#EFF5F9"/>
<path d="M154.256 243.793H162.209V174.807H154.256V243.793Z" fill="#EFF5F9"/>
<path d="M67.981 248.162H159.155V243.793H67.981V248.162Z" fill="white"/>
<path d="M154.256 174.807H64.9263V243.793H154.256V174.807Z" fill="#EFF5F9"/>
<path d="M143.104 183.297H76.0787C73.3733 183.297 71.1802 185.49 71.1802 188.196V201.02C71.1802 203.725 73.3733 205.919 76.0787 205.919H143.104C145.809 205.919 148.002 203.725 148.002 201.02V188.196C148.002 185.49 145.809 183.297 143.104 183.297Z" fill="#C9E0EF"/>
<path d="M143.104 212.675H76.0787C73.3733 212.675 71.1802 214.868 71.1802 217.573V230.398C71.1802 233.103 73.3733 235.296 76.0787 235.296H143.104C145.809 235.296 148.002 233.103 148.002 230.398V217.573C148.002 214.868 145.809 212.675 143.104 212.675Z" fill="#C9E0EF"/>
<path d="M92.9484 196.163H126.234C126.645 196.163 127.04 196 127.331 195.71C127.622 195.42 127.787 195.026 127.789 194.615C127.787 194.203 127.623 193.808 127.331 193.517C127.04 193.226 126.646 193.062 126.234 193.06H92.9484C92.5366 193.062 92.1422 193.226 91.851 193.517C91.5598 193.808 91.3954 194.203 91.3936 194.615C91.3954 195.026 91.56 195.42 91.8514 195.71C92.1428 196 92.5372 196.163 92.9484 196.163Z" fill="#023E7D"/>
<path d="M92.9484 225.54H126.234C126.645 225.54 127.04 225.377 127.331 225.087C127.622 224.797 127.787 224.404 127.789 223.992C127.787 223.581 127.623 223.186 127.331 222.895C127.04 222.604 126.646 222.439 126.234 222.437H92.9484C92.5366 222.439 92.1422 222.604 91.851 222.895C91.5598 223.186 91.3954 223.581 91.3936 223.992C91.3954 224.404 91.56 224.797 91.8514 225.087C92.1428 225.377 92.5372 225.54 92.9484 225.54Z" fill="#023E7D"/>
<path d="M189 279.321C262.673 279.321 322.396 275.834 322.396 271.533C322.396 267.232 262.673 263.745 189 263.745C115.327 263.745 55.6038 267.232 55.6038 271.533C55.6038 275.834 115.327 279.321 189 279.321Z" fill="white"/>
<path d="M218.481 54.9576H91.3384L101.218 228.107H228.354L218.481 54.9576Z" fill="#001845"/>
<path d="M220.951 54.9576H93.8083L103.688 228.107H230.83L220.951 54.9576Z" fill="#C9E0EF"/>
<path opacity="0.5" d="M212.192 60.7781H99.6218L107.692 217.511H223.187L212.192 60.7781Z" fill="#001845"/>
<path d="M99.6218 60.7781C107.988 113.025 102.25 165.271 110.63 217.511H226.111C217.745 165.271 223.482 113.025 215.103 60.7781H99.6218Z" fill="white"/>
<g opacity="0.3">
<path d="M123.234 107.741C125.784 107.761 128.229 108.76 130.065 110.53C131.901 112.301 132.987 114.708 133.1 117.256C133.151 118.482 132.953 119.705 132.516 120.851C132.08 121.998 131.415 123.043 130.561 123.925C129.708 124.806 128.684 125.504 127.552 125.977C126.42 126.449 125.204 126.687 123.977 126.675C121.442 126.654 119.013 125.658 117.193 123.894C115.373 122.13 114.301 119.734 114.201 117.201C114.148 115.979 114.341 114.759 114.77 113.613C115.2 112.468 115.855 111.421 116.698 110.534C117.544 109.656 118.559 108.959 119.683 108.486C120.806 108.012 122.015 107.773 123.234 107.782M123.165 105.794C121.682 105.785 120.213 106.078 118.847 106.656C117.481 107.234 116.248 108.084 115.222 109.155C114.196 110.226 113.4 111.495 112.881 112.884C112.362 114.274 112.132 115.754 112.205 117.235C112.325 120.293 113.618 123.187 115.815 125.318C118.012 127.448 120.945 128.651 124.005 128.677C125.494 128.689 126.971 128.399 128.345 127.824C129.72 127.249 130.963 126.401 132 125.331C133.037 124.261 133.846 122.992 134.378 121.601C134.91 120.209 135.154 118.724 135.095 117.235C134.947 114.164 133.628 111.267 131.409 109.138C129.19 107.01 126.24 105.813 123.165 105.794Z" fill="#C9E0EF"/>
</g>
<path d="M187.087 193.569H150.623C150.35 193.564 150.08 193.618 149.829 193.726C149.579 193.834 149.354 193.995 149.171 194.197C148.987 194.398 148.849 194.637 148.765 194.897C148.681 195.156 148.653 195.431 148.683 195.702C148.749 196.282 149.024 196.818 149.455 197.211C149.886 197.605 150.446 197.829 151.029 197.841H187.493C187.766 197.846 188.037 197.793 188.287 197.684C188.538 197.575 188.762 197.414 188.945 197.211C189.127 197.008 189.264 196.768 189.346 196.508C189.428 196.248 189.453 195.973 189.42 195.702C189.355 195.124 189.083 194.59 188.654 194.198C188.225 193.805 187.668 193.582 187.087 193.569Z" fill="#023E7D"/>
<path d="M206.592 184.591H149.887C149.613 184.585 149.34 184.638 149.088 184.746C148.835 184.853 148.609 185.013 148.422 185.214C148.236 185.416 148.094 185.654 148.006 185.914C147.918 186.174 147.886 186.45 147.913 186.723C147.962 187.301 148.225 187.841 148.649 188.236C149.074 188.631 149.63 188.855 150.211 188.863H206.888C207.163 188.871 207.436 188.82 207.69 188.715C207.944 188.61 208.173 188.452 208.361 188.251C208.55 188.051 208.694 187.813 208.784 187.554C208.874 187.294 208.908 187.018 208.883 186.744C208.839 186.164 208.579 185.622 208.155 185.223C207.731 184.825 207.174 184.599 206.592 184.591Z" fill="#023E7D"/>
<g opacity="0.3">
<path d="M124.397 144.776C126.928 144.794 129.355 145.79 131.169 147.556C132.984 149.321 134.045 151.72 134.132 154.25C134.178 155.475 133.978 156.696 133.541 157.842C133.105 158.987 132.443 160.033 131.593 160.916C130.743 161.797 129.723 162.495 128.595 162.968C127.466 163.441 126.253 163.679 125.03 163.668C122.492 163.651 120.059 162.657 118.234 160.893C116.41 159.129 115.335 156.73 115.233 154.195C115.191 152.968 115.398 151.746 115.84 150.601C116.283 149.456 116.952 148.412 117.808 147.533C118.664 146.653 119.689 145.955 120.821 145.482C121.953 145.008 123.17 144.768 124.397 144.776ZM124.397 142.781C122.906 142.772 121.429 143.064 120.054 143.639C118.679 144.215 117.434 145.062 116.394 146.131C115.355 147.199 114.542 148.467 114.004 149.857C113.466 151.248 113.215 152.732 113.265 154.222C113.387 157.288 114.687 160.189 116.893 162.322C119.1 164.454 122.044 165.653 125.112 165.671C126.599 165.676 128.071 165.381 129.44 164.803C130.809 164.224 132.047 163.375 133.079 162.305C134.11 161.235 134.915 159.967 135.444 158.578C135.972 157.189 136.214 155.707 136.155 154.222C136.052 151.166 134.77 148.268 132.579 146.135C130.387 144.002 127.455 142.8 124.397 142.781Z" fill="#C9E0EF"/>
</g>
<path d="M166.846 114.841H147.342C146.768 114.836 146.219 114.612 145.807 114.213C145.394 113.815 145.151 113.274 145.126 112.701C145.117 112.425 145.163 112.149 145.263 111.89C145.363 111.632 145.513 111.396 145.706 111.197C145.898 110.998 146.129 110.84 146.384 110.732C146.639 110.624 146.913 110.568 147.19 110.569H166.688C167.261 110.573 167.811 110.796 168.226 111.193C168.64 111.589 168.887 112.129 168.917 112.701C168.927 112.979 168.881 113.256 168.782 113.516C168.682 113.776 168.531 114.013 168.338 114.213C168.144 114.412 167.912 114.571 167.656 114.679C167.4 114.787 167.124 114.842 166.846 114.841Z" fill="#023E7D"/>
<path d="M189.358 114.841H176.148C175.574 114.836 175.024 114.612 174.611 114.214C174.197 113.816 173.952 113.275 173.926 112.701C173.917 112.425 173.963 112.149 174.063 111.89C174.162 111.632 174.313 111.396 174.506 111.197C174.698 110.998 174.929 110.84 175.184 110.732C175.439 110.624 175.713 110.568 175.99 110.569H189.206C189.779 110.573 190.328 110.797 190.742 111.193C191.155 111.59 191.401 112.129 191.429 112.701C191.439 112.979 191.393 113.256 191.293 113.516C191.194 113.776 191.043 114.013 190.849 114.213C190.656 114.412 190.424 114.571 190.168 114.679C189.911 114.787 189.636 114.842 189.358 114.841Z" fill="#023E7D"/>
<path d="M200.008 123.819H147.651C147.078 123.816 146.529 123.592 146.117 123.193C145.706 122.795 145.464 122.252 145.443 121.68C145.434 121.403 145.48 121.127 145.58 120.869C145.679 120.61 145.83 120.375 146.022 120.176C146.215 119.977 146.446 119.818 146.701 119.71C146.956 119.602 147.23 119.547 147.507 119.547H199.857C200.428 119.55 200.976 119.774 201.386 120.171C201.796 120.569 202.037 121.109 202.058 121.68C202.068 121.956 202.023 122.231 201.925 122.49C201.826 122.748 201.677 122.984 201.486 123.184C201.295 123.383 201.065 123.542 200.812 123.651C200.558 123.761 200.284 123.818 200.008 123.819Z" fill="#023E7D"/>
<g opacity="0.3">
<path d="M125.89 181.763C128.456 181.813 130.914 182.808 132.793 184.557C134.671 186.307 135.839 188.687 136.072 191.243C136.196 192.441 136.069 193.651 135.701 194.798C135.333 195.944 134.73 197.002 133.933 197.903C133.128 198.789 132.143 199.493 131.045 199.968C129.946 200.443 128.758 200.677 127.562 200.655C124.973 200.613 122.489 199.628 120.576 197.883C118.663 196.139 117.453 193.755 117.173 191.182C117.055 189.975 117.194 188.757 117.58 187.608C117.967 186.459 118.592 185.405 119.416 184.515C120.244 183.631 121.248 182.93 122.363 182.456C123.477 181.982 124.679 181.746 125.89 181.763ZM125.794 179.775C124.32 179.746 122.857 180.029 121.501 180.605C120.144 181.181 118.925 182.037 117.923 183.117C116.92 184.198 116.158 185.478 115.685 186.873C115.211 188.269 115.039 189.749 115.178 191.216C115.707 197.532 121.438 202.657 127.754 202.657C134.07 202.657 138.597 197.532 138.074 191.216C137.801 188.13 136.397 185.254 134.131 183.142C131.865 181.03 128.898 179.83 125.8 179.775H125.794Z" fill="#C9E0EF"/>
</g>
<path d="M208.952 156.561H148.539C148.262 156.561 147.988 156.617 147.733 156.725C147.478 156.833 147.247 156.991 147.054 157.19C146.862 157.389 146.711 157.625 146.612 157.883C146.512 158.142 146.466 158.417 146.475 158.694C146.499 159.265 146.742 159.805 147.153 160.201C147.564 160.598 148.112 160.822 148.683 160.827H209.124C209.401 160.827 209.675 160.772 209.93 160.664C210.185 160.556 210.416 160.397 210.608 160.198C210.801 159.999 210.952 159.764 211.051 159.505C211.151 159.247 211.197 158.971 211.188 158.694C211.167 158.117 210.921 157.572 210.503 157.174C210.086 156.775 209.529 156.556 208.952 156.561Z" fill="#023E7D"/>
<path d="M194.635 147.576H148.277C148 147.576 147.725 147.632 147.47 147.74C147.214 147.849 146.983 148.007 146.79 148.207C146.598 148.407 146.447 148.643 146.348 148.903C146.249 149.162 146.203 149.438 146.213 149.716C146.233 150.286 146.472 150.826 146.881 151.224C147.29 151.622 147.838 151.845 148.408 151.849H194.772C195.049 151.849 195.323 151.793 195.578 151.685C195.833 151.577 196.064 151.419 196.257 151.22C196.449 151.021 196.6 150.785 196.699 150.527C196.799 150.268 196.846 149.993 196.836 149.716C196.82 149.143 196.581 148.599 196.17 148.199C195.759 147.799 195.208 147.576 194.635 147.576Z" fill="#023E7D"/>
<path d="M124.28 123.943L123.468 122.609C121.686 119.698 117.964 117.105 116.684 116.341L117.648 114.635C120.175 116.164 122.426 118.109 124.307 120.386C127.231 116.458 131.504 112.419 137.29 108.057L138.535 109.667C132.343 114.325 127.954 118.611 125.14 122.691C124.858 123.111 124.569 123.531 124.28 123.943Z" fill="#023E7D"/>
<path d="M125.312 160.958C125.043 160.511 124.768 160.063 124.493 159.623C122.704 156.713 118.989 154.119 117.723 153.348L118.7 151.642C121.214 153.176 123.454 155.12 125.326 157.394C128.256 153.472 132.563 149.427 138.439 145.065L139.657 146.675C133.382 151.333 128.965 155.619 126.165 159.699L125.312 160.958Z" fill="#023E7D"/>
<path d="M127.672 198.055L126.764 196.72C124.782 193.81 120.943 191.216 119.622 190.452L120.516 188.746C123.116 190.287 125.459 192.225 127.458 194.491C130.155 190.569 134.256 186.524 139.952 182.169L141.239 183.779C135.157 188.436 130.981 192.723 128.442 196.803L127.672 198.055Z" fill="#023E7D"/>
<path d="M171.181 73.912C169.97 76.5539 168.729 79.1935 167.459 81.8308C170.078 83.1336 172.317 85.0891 173.961 87.5089C175.605 89.9286 176.597 92.731 176.843 95.6459H185.987C185.381 86.296 179.368 78.1569 171.181 73.912Z" fill="#C9E0EF"/>
<path d="M136.347 95.6597H145.491C145.267 93.0734 145.738 90.4742 146.856 88.1311C147.973 85.7881 149.697 83.7863 151.848 82.3331C150.068 79.6912 148.261 77.0493 146.427 74.4073C139.753 78.728 135.763 86.6469 136.347 95.6597Z" fill="#001845"/>
<path d="M158.811 70.8435C154.424 70.8001 150.119 72.0387 146.427 74.4073C148.261 77.0493 150.068 79.6912 151.848 82.3331C154.232 80.7754 157.023 79.9568 159.87 79.9801C162.505 79.9954 165.098 80.6343 167.438 81.8446C168.704 79.2027 169.945 76.5631 171.16 73.9257C167.348 71.9277 163.114 70.8709 158.811 70.8435Z" fill="#407BFF"/>
<path opacity="0.5" d="M158.811 70.8435C154.424 70.8001 150.119 72.0387 146.427 74.4073C148.261 77.0493 150.068 79.6912 151.848 82.3331C154.232 80.7754 157.023 79.9568 159.87 79.9801C162.505 79.9954 165.098 80.6343 167.438 81.8446C168.704 79.2027 169.945 76.5631 171.16 73.9257C167.348 71.9277 163.114 70.8709 158.811 70.8435Z" fill="#023E7D"/>
<path d="M169.984 89.3988C169.984 89.3988 160.751 93.176 159.774 93.864C159.54 94.0407 159.345 94.2622 159.198 94.5157C159.052 94.7691 158.958 95.0493 158.921 95.3397C158.884 95.6301 158.906 95.9249 158.985 96.2067C159.065 96.4885 159.199 96.7516 159.381 96.9806C159.726 97.4701 160.248 97.8062 160.836 97.9179C161.424 98.0296 162.032 97.9081 162.533 97.5792C163.544 96.8499 169.997 89.3988 169.984 89.3988ZM160.283 96.2788C160.193 96.1662 160.127 96.0367 160.088 95.8979C160.049 95.7592 160.038 95.6141 160.056 95.4711C160.074 95.3282 160.12 95.1902 160.192 95.0655C160.264 94.9407 160.361 94.8316 160.475 94.7446C160.723 94.5852 161.023 94.527 161.312 94.5821C161.601 94.6372 161.858 94.8012 162.03 95.0405C162.12 95.1531 162.186 95.2827 162.225 95.4214C162.264 95.5601 162.275 95.7052 162.257 95.8482C162.239 95.9911 162.193 96.1291 162.121 96.2538C162.049 96.3786 161.953 96.4877 161.838 96.5747C161.593 96.7369 161.296 96.7995 161.007 96.7496C160.718 96.6998 160.459 96.5412 160.283 96.3064V96.2788Z" fill="#001845"/>
<path d="M180.93 85.0301C180.975 85.4442 180.931 85.8632 180.802 86.259C180.672 86.6549 180.459 87.0186 180.178 87.3259C179.897 87.6332 179.553 87.877 179.171 88.0411C178.788 88.2052 178.374 88.2857 177.958 88.2774C177.075 88.2601 176.23 87.9201 175.581 87.3218C174.932 86.7235 174.524 85.9083 174.435 85.0301C174.388 84.6182 174.429 84.201 174.557 83.8064C174.684 83.4118 174.894 83.049 175.173 82.7422C175.451 82.4353 175.793 82.1916 176.173 82.0273C176.554 81.8631 176.965 81.782 177.38 81.7896C178.265 81.8045 179.114 82.142 179.767 82.7387C180.421 83.3354 180.834 84.1502 180.93 85.0301Z" fill="white"/>
<path d="M176.905 84.287C176.912 84.3524 176.905 84.4184 176.884 84.4809C176.864 84.5433 176.83 84.6007 176.786 84.6494C176.742 84.6981 176.688 84.7369 176.628 84.7634C176.568 84.7899 176.503 84.8034 176.437 84.803C176.296 84.802 176.16 84.7487 176.056 84.6534C175.952 84.5581 175.887 84.4276 175.873 84.287C175.865 84.2214 175.871 84.1549 175.891 84.092C175.911 84.0291 175.945 83.9712 175.989 83.9222C176.033 83.8733 176.088 83.8345 176.148 83.8084C176.209 83.7823 176.275 83.7696 176.341 83.771C176.482 83.7721 176.618 83.8254 176.722 83.9207C176.826 84.016 176.891 84.1465 176.905 84.287Z" fill="#263238"/>
<path d="M179.368 84.287C179.375 84.353 179.367 84.4196 179.347 84.4825C179.326 84.5455 179.292 84.6032 179.247 84.652C179.202 84.7008 179.147 84.7395 179.086 84.7655C179.025 84.7916 178.959 84.8043 178.893 84.803C178.753 84.799 178.619 84.7447 178.515 84.65C178.412 84.5552 178.345 84.4264 178.329 84.287C178.321 84.2208 178.327 84.1537 178.348 84.0903C178.368 84.0269 178.402 83.9686 178.447 83.9196C178.493 83.8705 178.548 83.8318 178.609 83.8062C178.671 83.7805 178.737 83.7685 178.804 83.771C178.945 83.7721 179.081 83.8254 179.185 83.9207C179.289 84.016 179.354 84.1465 179.368 84.287Z" fill="#263238"/>
<path d="M177.834 86.984C177.153 86.9786 176.499 86.7212 175.997 86.2616C175.95 86.2139 175.923 86.1497 175.923 86.0827C175.923 86.0157 175.95 85.9515 175.997 85.9038C176.02 85.8797 176.048 85.8605 176.078 85.8473C176.109 85.8342 176.142 85.8274 176.176 85.8274C176.209 85.8274 176.242 85.8342 176.273 85.8473C176.304 85.8605 176.331 85.8797 176.355 85.9038C176.762 86.2791 177.294 86.4899 177.847 86.4955C178.105 86.5012 178.36 86.4527 178.597 86.3532C178.834 86.2536 179.048 86.1052 179.223 85.9176C179.27 85.8683 179.334 85.8395 179.402 85.8376C179.436 85.8366 179.469 85.8423 179.5 85.8543C179.532 85.8662 179.56 85.8842 179.585 85.9073C179.609 85.9303 179.629 85.9579 179.642 85.9885C179.656 86.0191 179.664 86.0522 179.665 86.0857C179.666 86.1193 179.66 86.1527 179.648 86.184C179.636 86.2154 179.618 86.2441 179.595 86.2685C179.368 86.5051 179.094 86.6911 178.791 86.8144C178.487 86.9377 178.161 86.9955 177.834 86.984Z" fill="#263238"/>
<path d="M162.595 75.3568C162.651 75.7662 162.619 76.183 162.499 76.5786C162.379 76.9741 162.174 77.3388 161.9 77.6476C161.625 77.9564 161.286 78.2018 160.907 78.367C160.528 78.5321 160.118 78.6131 159.705 78.6041C158.815 78.5834 157.962 78.2444 157.301 77.6486C156.639 77.0528 156.213 76.2397 156.1 75.3568C156.038 74.9493 156.067 74.5332 156.184 74.1379C156.3 73.7426 156.502 73.3777 156.775 73.0688C157.048 72.7599 157.385 72.5146 157.763 72.35C158.141 72.1854 158.55 72.1057 158.962 72.1163C159.854 72.1373 160.709 72.4748 161.374 73.0685C162.04 73.6622 162.472 74.4733 162.595 75.3568Z" fill="white"/>
<path d="M158.549 74.6C158.558 74.6646 158.553 74.7304 158.534 74.7928C158.515 74.8553 158.483 74.9129 158.44 74.9619C158.397 75.0109 158.344 75.0499 158.284 75.0765C158.225 75.1031 158.16 75.1166 158.095 75.116C157.953 75.1124 157.817 75.0586 157.711 74.9641C157.605 74.8696 157.537 74.7405 157.517 74.6C157.507 74.5352 157.511 74.4689 157.53 74.406C157.548 74.343 157.58 74.2848 157.623 74.2356C157.667 74.1863 157.72 74.1472 157.78 74.121C157.84 74.0948 157.906 74.0822 157.971 74.084C158.113 74.0861 158.25 74.1395 158.356 74.2342C158.462 74.329 158.531 74.4588 158.549 74.6Z" fill="#263238"/>
<path d="M161.005 74.6C161.014 74.6652 161.009 74.7315 160.99 74.7945C160.971 74.8574 160.938 74.9155 160.894 74.9645C160.85 75.0136 160.796 75.0526 160.736 75.0787C160.675 75.1049 160.61 75.1176 160.544 75.116C160.403 75.1111 160.268 75.0568 160.162 74.9625C160.056 74.8682 159.987 74.74 159.966 74.6C159.957 74.5348 159.963 74.4684 159.982 74.4055C160.001 74.3425 160.034 74.2845 160.078 74.2354C160.121 74.1863 160.175 74.1474 160.236 74.1212C160.296 74.0951 160.362 74.0824 160.427 74.084C160.569 74.0875 160.705 74.1413 160.811 74.2359C160.917 74.3304 160.986 74.4594 161.005 74.6Z" fill="#263238"/>
<path d="M161.074 76.664H157.854C157.793 76.6539 157.737 76.6225 157.697 76.5752C157.657 76.528 157.635 76.468 157.635 76.406C157.635 76.344 157.657 76.284 157.697 76.2367C157.737 76.1895 157.793 76.158 157.854 76.148H161.074C161.135 76.158 161.191 76.1895 161.231 76.2367C161.271 76.284 161.293 76.344 161.293 76.406C161.293 76.468 161.271 76.528 161.231 76.5752C161.191 76.6225 161.135 76.6539 161.074 76.664Z" fill="#263238"/>
<path d="M146.255 85.0301C146.3 85.4442 146.256 85.8632 146.126 86.259C145.997 86.6549 145.784 87.0186 145.503 87.3259C145.222 87.6332 144.878 87.877 144.495 88.0411C144.112 88.2052 143.699 88.2857 143.282 88.2774C142.4 88.2601 141.554 87.9201 140.905 87.3218C140.256 86.7235 139.849 85.9083 139.76 85.0301C139.713 84.6182 139.754 84.201 139.881 83.8064C140.009 83.4118 140.219 83.049 140.497 82.7422C140.776 82.4353 141.117 82.1916 141.498 82.0273C141.879 81.8631 142.29 81.782 142.704 81.7896C143.589 81.806 144.437 82.144 145.091 82.7404C145.744 83.3368 146.158 84.1507 146.255 85.0301Z" fill="white"/>
<path d="M142.216 84.287C142.223 84.3524 142.216 84.4184 142.195 84.4809C142.175 84.5433 142.141 84.6007 142.097 84.6494C142.053 84.6981 141.999 84.7369 141.939 84.7634C141.879 84.7899 141.814 84.8034 141.748 84.803C141.607 84.802 141.471 84.7487 141.367 84.6534C141.263 84.5581 141.198 84.4276 141.184 84.287C141.176 84.2214 141.182 84.1549 141.202 84.092C141.222 84.0291 141.256 83.9712 141.3 83.9222C141.344 83.8733 141.399 83.8345 141.46 83.8084C141.52 83.7823 141.586 83.7696 141.652 83.771C141.793 83.7721 141.929 83.8254 142.033 83.9207C142.137 84.016 142.202 84.1465 142.216 84.287Z" fill="#263238"/>
<path d="M144.679 84.287C144.687 84.3526 144.681 84.4191 144.661 84.482C144.641 84.545 144.607 84.6029 144.563 84.6518C144.519 84.7007 144.464 84.7395 144.404 84.7656C144.343 84.7917 144.277 84.8045 144.211 84.803C144.071 84.799 143.937 84.7447 143.833 84.65C143.73 84.5552 143.664 84.4264 143.647 84.287C143.639 84.2214 143.645 84.1549 143.666 84.092C143.686 84.0291 143.719 83.9712 143.763 83.9222C143.808 83.8733 143.862 83.8345 143.923 83.8084C143.983 83.7823 144.049 83.7696 144.115 83.771C144.257 83.7705 144.393 83.8233 144.498 83.9189C144.602 84.0145 144.667 84.1459 144.679 84.287Z" fill="#263238"/>
<path d="M141.528 86.984C141.496 86.9844 141.465 86.9786 141.435 86.9668C141.406 86.955 141.379 86.9374 141.356 86.9152C141.309 86.8675 141.282 86.8033 141.282 86.7363C141.282 86.6693 141.309 86.6051 141.356 86.5574C141.579 86.3202 141.849 86.1316 142.148 86.0038C142.448 85.8759 142.771 85.8114 143.097 85.8144C143.778 85.8216 144.433 86.0815 144.934 86.5437C144.958 86.5668 144.977 86.5946 144.99 86.6253C145.003 86.656 145.01 86.6891 145.01 86.7225C145.01 86.756 145.003 86.7891 144.99 86.8198C144.977 86.8505 144.958 86.8783 144.934 86.9014C144.884 86.9474 144.819 86.9729 144.751 86.9729C144.684 86.9729 144.618 86.9474 144.569 86.9014C144.162 86.5216 143.626 86.3102 143.069 86.3097C142.813 86.304 142.558 86.3518 142.321 86.4501C142.084 86.5484 141.87 86.6951 141.693 86.8808C141.653 86.9346 141.594 86.9715 141.528 86.984Z" fill="#263238"/>
<path d="M193.637 61.2253C191.49 56.7051 186.482 53.7123 181.081 53.7123H170.073C169.317 53.7457 168.566 53.5787 167.895 53.2283C167.225 52.878 166.659 52.3566 166.255 51.7171C164.72 48.8413 161.06 46.791 156.905 46.791C152.749 46.791 149.337 48.855 148.126 51.7171C147.624 52.928 146.186 53.7123 144.534 53.7123H133.526C128.126 53.7123 123.454 56.7051 121.83 61.2253C121.77 61.383 121.747 61.5524 121.762 61.7206C121.779 62.0735 121.932 62.4061 122.188 62.6494C122.444 62.8928 122.784 63.0283 123.138 63.0278H192.543C192.755 63.0283 192.964 62.974 193.149 62.8702C193.334 62.7664 193.489 62.6165 193.599 62.4352C193.709 62.2539 193.77 62.0472 193.777 61.8353C193.784 61.6233 193.735 61.4132 193.637 61.2253ZM157.352 54.9576C156.531 54.9406 155.746 54.617 155.151 54.0505C154.557 53.4839 154.195 52.7153 154.139 51.896C154.111 51.5014 154.166 51.1053 154.299 50.7328C154.432 50.3603 154.641 50.0194 154.913 49.7318C155.184 49.4441 155.512 49.2158 155.877 49.0613C156.241 48.9069 156.633 48.8296 157.029 48.8344C157.855 48.8429 158.648 49.1629 159.248 49.7305C159.849 50.2981 160.214 51.0714 160.269 51.896C160.297 52.2929 160.242 52.6914 160.107 53.0658C159.972 53.4402 159.761 53.7824 159.486 54.0705C159.212 54.3586 158.88 54.5863 158.513 54.739C158.145 54.8918 157.75 54.9662 157.352 54.9576Z" fill="#001845"/>
<path d="M264.969 266.628C264.431 266.694 263.887 266.559 263.442 266.249C263.383 266.176 263.347 266.088 263.339 265.995C263.33 265.902 263.349 265.809 263.393 265.726C263.426 265.656 263.475 265.593 263.536 265.544C263.597 265.496 263.668 265.461 263.744 265.444C264.556 265.217 266.434 266.222 266.496 266.27C266.52 266.28 266.539 266.298 266.552 266.32C266.564 266.343 266.569 266.368 266.565 266.394C266.564 266.417 266.555 266.439 266.54 266.456C266.525 266.474 266.505 266.485 266.483 266.49C265.983 266.579 265.477 266.625 264.969 266.628ZM264.061 265.651C263.986 265.639 263.909 265.639 263.834 265.651C263.787 265.659 263.743 265.679 263.704 265.707C263.666 265.736 263.635 265.773 263.614 265.816C263.545 265.967 263.614 266.043 263.614 266.084C263.889 266.407 265.168 266.414 266.09 266.284C265.457 265.953 264.77 265.738 264.061 265.651Z" fill="#263238"/>
<path d="M266.482 266.49H266.434C265.794 266.215 264.46 265.114 264.487 264.55C264.487 264.412 264.57 264.247 264.9 264.213C265.147 264.192 265.393 264.265 265.588 264.419C266.103 264.958 266.451 265.634 266.593 266.366C266.601 266.383 266.605 266.402 266.605 266.421C266.605 266.44 266.601 266.459 266.593 266.476C266.577 266.488 266.558 266.495 266.539 266.497C266.52 266.499 266.5 266.497 266.482 266.49ZM265.017 264.426H264.948C264.735 264.426 264.728 264.529 264.728 264.557C264.728 264.901 265.629 265.761 266.297 266.132C266.166 265.545 265.873 265.006 265.45 264.577C265.326 264.484 265.173 264.435 265.017 264.44V264.426Z" fill="#263238"/>
<path d="M272.028 266.373H266.971L265.162 254.663H270.218L272.028 266.373Z" fill="#FFC3BD"/>
<path d="M266.937 265.788H272.441C272.544 265.791 272.645 265.826 272.728 265.887C272.812 265.949 272.875 266.034 272.908 266.132L274.408 270.625C274.44 270.726 274.448 270.832 274.432 270.937C274.416 271.041 274.376 271.14 274.316 271.227C274.255 271.313 274.176 271.384 274.083 271.435C273.991 271.486 273.888 271.515 273.782 271.519C271.787 271.519 268.897 271.375 266.393 271.375C263.469 271.375 263.73 271.533 260.297 271.533C258.233 271.533 257.415 269.435 258.233 269.242C262.093 268.382 262.54 268.286 265.719 266.18C266.075 265.928 266.5 265.791 266.937 265.788Z" fill="#C9E0EF"/>
<path opacity="0.2" d="M265.162 254.67L266.097 260.704H271.154L270.218 254.67H265.162Z" fill="black"/>
<path d="M271.45 140.27L268.01 143.744L273.28 145.608C273.28 145.608 275.344 142.774 273.892 140.834L271.45 140.27Z" fill="#FFC3BD"/>
<path d="M266.854 148.601L272.117 149.372L273.294 145.608L268.024 143.744L266.854 148.601Z" fill="#FFC3BD"/>
<path d="M273.748 97.4897C274.195 98.4529 274.553 99.2717 274.91 100.166C275.268 101.06 275.598 101.92 275.942 102.801C276.596 104.569 277.181 106.372 277.724 108.195C278.278 110.04 278.737 111.911 279.1 113.802L279.362 115.247L279.575 116.719C279.651 117.208 279.699 117.717 279.74 118.219C279.781 118.721 279.85 119.175 279.85 119.808V120.703V121.494L279.809 122.271L279.733 123.008C279.644 123.998 279.513 124.927 279.389 125.87C279.114 127.727 278.798 129.544 278.447 131.374C277.717 134.972 276.919 138.488 275.956 142.031L269.689 140.792C270.088 137.297 270.5 133.747 270.831 130.252C270.989 128.505 271.161 126.764 271.257 125.058C271.298 124.219 271.347 123.365 271.347 122.56V121.955V121.398V120.84L271.298 120.386C271.267 120.024 271.217 119.663 271.147 119.306C271.085 118.921 271.03 118.536 270.941 118.143L270.686 116.967L270.39 115.784C269.964 114.201 269.482 112.612 268.932 111.023C268.381 109.433 267.769 107.851 267.122 106.282C266.806 105.491 266.476 104.707 266.132 103.936C265.788 103.166 265.444 102.361 265.106 101.693L273.748 97.4897Z" fill="white"/>
<path d="M250.503 138.307H267.287C267.286 138.599 267.284 139.015 267.282 139.542C267.277 140.66 267.273 142.276 267.27 144.27C267.265 148.257 267.269 153.752 267.306 159.784C267.381 171.845 267.589 186.071 268.123 194.687C268.612 202.575 269.623 218.795 270.512 233.042C270.957 240.166 271.371 246.797 271.674 251.647L272.035 257.425L272.134 259.01L272.135 259.034H264.532L264.505 258.869L264.226 257.204C263.985 255.762 263.639 253.684 263.215 251.14C262.368 246.053 261.214 239.103 259.986 231.653C257.529 216.749 254.778 199.848 253.596 191.838C252.465 184.162 251.688 170.662 251.194 159.058C250.948 153.261 250.772 147.945 250.658 144.078C250.601 142.145 250.559 140.574 250.532 139.487C250.519 138.988 250.509 138.59 250.503 138.307Z" fill="#263238" stroke="#263238"/>
<path d="M262.052 256.122C262.01 256.122 262.932 259.679 262.932 259.679H273.349L273.273 256.507L262.052 256.122Z" fill="#263238"/>
<path d="M248.063 75.081C248.089 74.6524 247.883 74.291 247.602 74.2738C247.322 74.2565 247.073 74.5899 247.046 75.0185C247.02 75.447 247.226 75.8084 247.507 75.8257C247.787 75.843 248.036 75.5096 248.063 75.081Z" fill="#263238"/>
<path d="M247.851 75.8246C247.293 77.1363 246.562 78.3673 245.677 79.4848C245.966 79.6947 246.298 79.8381 246.649 79.9047C247 79.9713 247.361 79.9595 247.707 79.8701L247.851 75.8246Z" fill="#ED847E"/>
<path d="M249.668 72.6736C249.615 72.6737 249.562 72.6594 249.516 72.6323C249.27 72.4386 248.981 72.3074 248.673 72.2499C248.365 72.1924 248.048 72.2103 247.748 72.3021C247.718 72.3142 247.685 72.3201 247.652 72.3193C247.619 72.3186 247.586 72.3113 247.556 72.2978C247.526 72.2844 247.499 72.265 247.476 72.241C247.454 72.2169 247.436 72.1885 247.425 72.1576C247.414 72.1259 247.41 72.0925 247.412 72.0591C247.414 72.0258 247.422 71.9931 247.437 71.9631C247.452 71.9331 247.472 71.9063 247.497 71.8841C247.522 71.862 247.552 71.8451 247.583 71.8342C247.96 71.7116 248.361 71.6825 248.752 71.7497C249.143 71.8168 249.512 71.978 249.826 72.2195C249.878 72.2603 249.912 72.3197 249.921 72.3852C249.93 72.4507 249.913 72.5171 249.874 72.5704C249.85 72.6022 249.819 72.6281 249.783 72.646C249.747 72.6639 249.708 72.6733 249.668 72.6736Z" fill="#263238"/>
<path d="M261.446 79.7737C260.593 83.4752 259.63 90.252 262.134 92.715C262.134 92.715 260.992 96.4646 254.119 96.4646C246.551 96.4646 250.645 92.715 250.645 92.715C254.773 91.7312 254.807 88.6765 254.188 85.8006L261.446 79.7737Z" fill="#FFC3BD"/>
<path d="M264.797 94.4488C265.54 92.9421 266.359 91.2083 264.797 90.6717C263.091 90.0731 253.658 89.4676 250.349 90.5822C249.465 90.8076 248.706 91.3749 248.241 92.1594C247.775 92.9438 247.64 93.8812 247.865 94.7652L264.797 94.4488Z" fill="#023E7D"/>
<path d="M272.035 94.1667C276.39 96.1757 278.605 111.408 278.605 111.408L269.833 114.16C268.266 110.13 266.994 105.991 266.028 101.776C264.68 95.4189 267.576 92.1165 272.035 94.1667Z" fill="white"/>
<path d="M218.123 117.868L214.078 114.387L210.438 119.685C210.438 119.685 213.706 122.306 217.318 121.233L218.123 117.868Z" fill="#FFC3BD"/>
<path d="M208.746 112.701L208.188 117.937L210.438 119.685L214.078 114.387L208.746 112.701Z" fill="#FFC3BD"/>
<path d="M262.375 74.139C261.866 79.3953 261.831 82.4913 259.079 85.1883C258.193 86.0663 257.085 86.6867 255.873 86.9832C254.661 87.2797 253.391 87.241 252.199 86.8714C251.008 86.5017 249.939 85.815 249.108 84.8847C248.276 83.9544 247.714 82.8156 247.48 81.5901C246.517 76.8704 247.48 69.0685 252.729 66.9769C253.847 66.4951 255.071 66.3155 256.28 66.4561C257.489 66.5967 258.639 67.0525 259.616 67.778C260.593 68.5035 261.362 69.473 261.847 70.5894C262.331 71.7059 262.513 72.93 262.375 74.139Z" fill="#FFC3BD"/>
<path d="M251.608 75.8246C251.147 72.192 251.223 70.816 253.163 70.011C251.147 69.612 249.399 69.5569 248.567 68.3805C247.734 67.204 247.535 64.1974 251.58 62.8214C251.209 63.5094 252.385 64.9405 256.107 63.647C259.829 62.3536 265.251 62.216 265.739 66C267.707 65.312 271.003 71.387 267.115 75.8246C263.875 79.5398 261.715 82.1061 261.075 84.0806C261.045 84.1731 260.996 84.2582 260.93 84.3303C260.865 84.4024 260.785 84.4598 260.696 84.4988C260.607 84.5378 260.511 84.5575 260.414 84.5566C260.316 84.5557 260.22 84.5341 260.132 84.4934C258.791 83.8673 256.389 84.404 255.316 84.6929C255.165 84.7321 255.005 84.7187 254.862 84.655C254.72 84.5912 254.603 84.4809 254.532 84.3421C253.837 82.911 251.959 78.8243 251.608 75.8246Z" fill="#263238"/>
<path d="M265.01 66.4609C265.01 66.4609 266.606 64.2112 269.668 65.883C268.094 65.8097 266.519 66.0051 265.01 66.4609Z" fill="#263238"/>
<path d="M265.271 66.9425C265.271 66.9425 267.494 65.5665 265.76 62.9728C265.866 64.3154 265.7 65.6657 265.271 66.9425Z" fill="#263238"/>
<path d="M254.181 75.976C253.939 77.2767 253.294 78.4683 252.337 79.3816C251.064 80.5856 249.963 79.7325 249.929 78.1845C249.895 76.8085 250.514 74.483 251.993 73.8638C253.472 73.2446 254.442 74.4211 254.181 75.976Z" fill="#FFC3BD"/>
<path opacity="0.3" d="M250.7 159.307C251.195 170.851 251.973 184.253 253.101 191.911C253.534 194.828 254.167 198.915 254.924 203.655C257.965 187.06 259.781 165.677 250.7 159.307Z" fill="black"/>
<path d="M246.909 266.628C246.262 266.628 245.636 266.538 245.437 266.249C245.385 266.172 245.357 266.081 245.357 265.988C245.357 265.895 245.385 265.804 245.437 265.726C245.529 265.588 245.668 265.488 245.829 265.444C246.675 265.217 248.409 266.222 248.484 266.27C248.506 266.282 248.522 266.3 248.531 266.323C248.54 266.346 248.54 266.371 248.533 266.394C248.528 266.417 248.516 266.439 248.499 266.456C248.482 266.473 248.46 266.485 248.436 266.49C247.932 266.578 247.421 266.624 246.909 266.628ZM246.145 265.651C246.068 265.639 245.989 265.639 245.911 265.651C245.862 265.66 245.815 265.68 245.774 265.708C245.732 265.737 245.697 265.773 245.67 265.816C245.581 265.967 245.609 266.043 245.636 266.084C245.863 266.407 247.136 266.414 248.085 266.284C247.486 265.947 246.827 265.732 246.145 265.651Z" fill="#263238"/>
<path d="M248.443 266.49H248.395C247.796 266.215 246.62 265.114 246.737 264.55C246.737 264.412 246.861 264.247 247.191 264.213C247.314 264.197 247.438 264.208 247.557 264.243C247.675 264.279 247.785 264.339 247.879 264.419C248.505 264.949 248.567 266.311 248.567 266.366C248.566 266.387 248.561 266.408 248.552 266.427C248.542 266.446 248.529 266.463 248.512 266.476C248.491 266.487 248.467 266.492 248.443 266.49ZM247.28 264.426H247.212C246.991 264.426 246.978 264.529 246.971 264.557C246.902 264.901 247.693 265.761 248.306 266.132C248.268 265.563 248.054 265.02 247.693 264.577C247.576 264.484 247.43 264.435 247.28 264.44V264.426Z" fill="#263238"/>
<path d="M254.002 266.373H248.952L248.856 254.663H253.913L254.002 266.373Z" fill="#FFC3BD"/>
<path d="M249 265.788H254.504C254.603 265.787 254.699 265.821 254.774 265.884C254.85 265.947 254.901 266.035 254.917 266.132L255.763 270.625C255.783 270.736 255.777 270.849 255.747 270.957C255.718 271.066 255.665 271.166 255.592 271.252C255.519 271.337 255.428 271.405 255.326 271.452C255.223 271.498 255.112 271.521 255 271.519C253.011 271.519 250.135 271.375 247.638 271.375C244.707 271.375 242.175 271.533 238.742 271.533C236.678 271.533 236.169 269.435 237.043 269.242C241.026 268.382 244.26 268.286 247.748 266.18C248.122 265.939 248.555 265.803 249 265.788Z" fill="#C9E0EF"/>
<path opacity="0.2" d="M248.863 254.67L248.904 260.704H253.961L253.92 254.67H248.863Z" fill="black"/>
<path d="M239.449 191.01L239.449 191.008C239.428 183.316 239.933 170.028 240.444 158.651C240.699 152.965 240.956 147.761 241.149 143.978C241.245 142.086 241.326 140.55 241.382 139.487C241.409 138.983 241.43 138.586 241.445 138.307L259.782 138.32C259.746 138.588 259.699 138.947 259.641 139.389C259.503 140.44 259.305 141.962 259.064 143.842C258.582 147.602 257.929 152.795 257.244 158.525C255.874 169.98 254.374 183.6 253.861 192.217C253.377 200.109 253.695 216.956 254.132 231.804C254.35 239.233 254.599 246.171 254.793 251.252C254.89 253.792 254.973 255.868 255.032 257.309C255.062 258.029 255.085 258.591 255.101 258.973L255.104 259.034H247.496L247.47 258.865C247.411 258.477 247.323 257.906 247.213 257.173C246.991 255.706 246.674 253.594 246.293 251.009C245.532 245.838 244.518 238.778 243.503 231.217C241.472 216.078 239.449 198.984 239.449 191.01Z" fill="#263238" stroke="#263238"/>
<path d="M245.54 256.122C245.498 256.122 245.891 259.679 245.891 259.679H256.307L256.706 256.507L245.54 256.122Z" fill="#263238"/>
<path d="M242.815 94.1185C242.815 94.1185 234.201 115.88 237.951 153.493H269.406C269.737 149.365 266.448 113.41 271.14 93.8571C268.164 93.2809 265.153 92.8994 262.127 92.715C258.301 92.4947 254.464 92.4947 250.638 92.715C247.998 92.9806 245.383 93.4499 242.815 94.1185Z" fill="white"/>
<path opacity="0.2" d="M238.364 113.816C237.896 117.256 237.511 121.184 237.263 125.512C243.373 119.898 245.464 105.911 245.464 105.911L238.364 113.816Z" fill="black"/>
<path d="M246.056 104.48C244.817 107.7 243.565 110.803 242.189 113.919C240.813 117.036 239.389 120.111 237.786 123.193L237.16 124.342L236.843 124.92C236.713 125.154 236.727 125.168 236.369 125.767C235.752 126.737 234.897 127.532 233.885 128.078C233.048 128.518 232.135 128.794 231.195 128.89C229.902 129.008 228.599 128.904 227.342 128.58C226.348 128.334 225.373 128.017 224.425 127.631C222.723 126.926 221.074 126.098 219.492 125.154C218.715 124.707 217.972 124.225 217.235 123.778C216.499 123.331 215.832 122.76 215.041 122.21L218.756 116.513C221.422 117.982 224.221 119.196 227.115 120.139C227.729 120.329 228.357 120.471 228.993 120.565C229.356 120.643 229.731 120.643 230.094 120.565C230.135 120.565 230.005 120.524 229.778 120.641C229.501 120.782 229.265 120.99 229.09 121.246C228.945 121.487 229.131 121.129 229.193 120.992L229.441 120.448L229.936 119.368C231.243 116.451 232.454 113.431 233.631 110.424C234.807 107.418 235.949 104.28 237.002 101.246L246.056 104.48Z" fill="white"/>
<path d="M249.475 96.4027C251.085 100.902 239.692 119.017 239.692 119.017L232.936 112.323C232.936 112.323 234.662 106.633 236.94 99.7808C239.183 93.0453 247.941 92.1027 249.475 96.4027Z" fill="white"/>
</svg>
