<svg width="14" height="14" viewBox="0 0 14 14" fill="none" xmlns="http://www.w3.org/2000/svg">
<path d="M7.00001 9.91665C7.30943 9.91665 7.60618 9.79373 7.82497 9.57494C8.04376 9.35614 8.16668 9.0594 8.16668 8.74998C8.16668 8.10248 7.64168 7.58331 7.00001 7.58331C6.69059 7.58331 6.39385 7.70623 6.17505 7.92502C5.95626 8.14381 5.83334 8.44056 5.83334 8.74998C5.83334 9.0594 5.95626 9.35614 6.17505 9.57494C6.39385 9.79373 6.69059 9.91665 7.00001 9.91665ZM10.5 4.66665C10.8094 4.66665 11.1062 4.78956 11.325 5.00836C11.5438 5.22715 11.6667 5.52389 11.6667 5.83331V11.6666C11.6667 11.9761 11.5438 12.2728 11.325 12.4916C11.1062 12.7104 10.8094 12.8333 10.5 12.8333H3.50001C3.19059 12.8333 2.89384 12.7104 2.67505 12.4916C2.45626 12.2728 2.33334 11.9761 2.33334 11.6666V5.83331C2.33334 5.18581 2.85834 4.66665 3.50001 4.66665H4.08334V3.49998C4.08334 2.72643 4.39063 1.98457 4.93762 1.43758C5.4846 0.890604 6.22646 0.583313 7.00001 0.583313C7.38303 0.583313 7.7623 0.658755 8.11617 0.805331C8.47004 0.951907 8.79157 1.16675 9.06241 1.43758C9.33324 1.70842 9.54808 2.02995 9.69466 2.38382C9.84124 2.73769 9.91668 3.11696 9.91668 3.49998V4.66665H10.5ZM7.00001 1.74998C6.53588 1.74998 6.09076 1.93435 5.76257 2.26254C5.43438 2.59073 5.25001 3.03585 5.25001 3.49998V4.66665H8.75001V3.49998C8.75001 3.03585 8.56564 2.59073 8.23745 2.26254C7.90926 1.93435 7.46414 1.74998 7.00001 1.74998Z" fill="#023E7D"/>
</svg>
