<svg width="101" height="21" viewBox="0 0 101 21" fill="none" xmlns="http://www.w3.org/2000/svg">
<path d="M21.8574 5.8205H22.8276V13.2125H21.8574V5.8205ZM26.9667 8.4805C27.2713 8.4805 27.5664 8.54399 27.8522 8.6709C28.1417 8.79781 28.3786 8.99941 28.563 9.2757C28.7509 9.54821 28.845 9.90479 28.845 10.3453V13.2125H27.8522V10.5357C27.8522 10.0802 27.7451 9.74981 27.5307 9.5445C27.3164 9.33541 27.04 9.2309 26.7016 9.2309C26.4797 9.2309 26.2653 9.29439 26.0585 9.4213C25.8555 9.5445 25.6881 9.71621 25.5565 9.9365C25.4249 10.153 25.3591 10.3994 25.3591 10.6757V13.2125H24.3776V8.6149H25.3591V9.4325C25.3929 9.30559 25.485 9.16741 25.6355 9.0181C25.7859 8.86879 25.9776 8.74181 26.2108 8.6373C26.4439 8.53279 26.6959 8.4805 26.9667 8.4805ZM29.7335 8.6149H30.6417V6.7277H31.6175V8.6149H32.8077V9.4493H31.6175V11.7229C31.6175 11.9917 31.6645 12.1896 31.7585 12.3165C31.8563 12.4434 31.986 12.5069 32.1477 12.5069C32.2906 12.5069 32.4015 12.4808 32.4805 12.4285C32.5595 12.3762 32.6065 12.3408 32.6215 12.3221L33.0107 13.0389C32.9882 13.0576 32.928 13.093 32.8302 13.1453C32.7325 13.1976 32.6065 13.2442 32.4523 13.2853C32.2982 13.3264 32.1177 13.3469 31.9108 13.3469C31.5498 13.3469 31.2471 13.2386 31.0027 13.0221C30.762 12.8018 30.6417 12.4546 30.6417 11.9805V9.4493H29.7335V8.6149ZM34.4779 11.1125C34.4817 11.3888 34.5419 11.6408 34.6584 11.8685C34.775 12.0962 34.948 12.2773 35.1773 12.4117C35.4105 12.5461 35.6963 12.6133 36.0347 12.6133C36.3205 12.6133 36.563 12.5722 36.7624 12.4901C36.9654 12.4042 37.1309 12.3034 37.2587 12.1877C37.3866 12.0682 37.4787 11.9618 37.5351 11.8685L38.0146 12.4565C37.8905 12.6357 37.7382 12.7925 37.5577 12.9269C37.3809 13.0613 37.1648 13.164 36.909 13.2349C36.6533 13.3096 36.3412 13.3469 35.9727 13.3469C35.4763 13.3469 35.0457 13.2424 34.681 13.0333C34.32 12.8205 34.0417 12.5274 33.8462 12.1541C33.6506 11.777 33.5529 11.3458 33.5529 10.8605C33.5529 10.4125 33.645 10.0093 33.8292 9.6509C34.0135 9.28879 34.2805 9.00319 34.6302 8.7941C34.9837 8.58501 35.4086 8.4805 35.905 8.4805C36.36 8.4805 36.7548 8.5757 37.0895 8.7661C37.428 8.95279 37.6893 9.21781 37.8736 9.5613C38.0616 9.90479 38.1556 10.3154 38.1556 10.7933C38.1556 10.8232 38.1537 10.8773 38.15 10.9557C38.1462 11.0304 38.1424 11.0826 38.1387 11.1125H34.4779ZM37.2193 10.3789C37.2155 10.2258 37.1704 10.0578 37.0839 9.8749C37.0012 9.69199 36.8658 9.53519 36.6778 9.4045C36.4897 9.27381 36.2359 9.2085 35.9163 9.2085C35.5854 9.2085 35.3184 9.27199 35.1153 9.3989C34.916 9.52581 34.7693 9.68079 34.6753 9.8637C34.5813 10.0429 34.5268 10.2146 34.5118 10.3789H37.2193ZM40.2602 13.2125H39.2731V5.5069H40.2602V13.2125ZM42.695 13.2125H41.7078V5.5069H42.695V13.2125ZM44.2159 13.2125V8.6149H45.1974V13.2125H44.2159ZM44.718 7.0413C44.5412 7.0413 44.3889 6.9797 44.261 6.8565C44.137 6.72959 44.0749 6.57839 44.0749 6.4029C44.0749 6.22741 44.137 6.07621 44.261 5.9493C44.3889 5.82239 44.5412 5.7589 44.718 5.7589C44.8345 5.7589 44.9417 5.78879 45.0395 5.8485C45.141 5.90821 45.2218 5.98661 45.282 6.0837C45.3422 6.17701 45.3723 6.28341 45.3723 6.4029C45.3723 6.57839 45.3083 6.72959 45.1805 6.8565C45.0526 6.9797 44.8985 7.0413 44.718 7.0413ZM48.9088 15.6709C48.5441 15.6709 48.2132 15.6336 47.916 15.5589C47.6227 15.4842 47.3652 15.3778 47.1433 15.2397C46.9252 15.1053 46.7503 14.9466 46.6187 14.7637L47.2617 14.1533C47.3332 14.2504 47.4291 14.353 47.5494 14.4613C47.6735 14.5733 47.8409 14.6685 48.0514 14.7469C48.262 14.8253 48.5365 14.8645 48.875 14.8645C49.2059 14.8645 49.486 14.7936 49.7154 14.6517C49.9448 14.5136 50.1197 14.325 50.24 14.0861C50.3603 13.8472 50.4205 13.5784 50.4205 13.2797V13.1285H51.3794V13.3413C51.3794 13.849 51.2685 14.2746 51.0466 14.6181C50.8285 14.9653 50.5333 15.2266 50.161 15.4021C49.7887 15.5813 49.3713 15.6709 48.9088 15.6709ZM50.4205 13.2125V12.3165C50.3904 12.4098 50.302 12.5386 50.1554 12.7029C50.0125 12.8672 49.8151 13.0165 49.5631 13.1509C49.3149 13.2816 49.0216 13.3469 48.6832 13.3469C48.2545 13.3469 47.8653 13.2461 47.5156 13.0445C47.1696 12.8429 46.8933 12.561 46.6864 12.1989C46.4833 11.833 46.3818 11.4056 46.3818 10.9165C46.3818 10.4274 46.4833 10.0018 46.6864 9.6397C46.8933 9.27381 47.1696 8.9901 47.5156 8.7885C47.8653 8.58319 48.2545 8.4805 48.6832 8.4805C49.0179 8.4805 49.3074 8.54021 49.5518 8.6597C49.8 8.77919 49.9974 8.9173 50.1441 9.0741C50.2945 9.2309 50.3829 9.3653 50.4092 9.4773V8.6149H51.3794V13.2125H50.4205ZM47.352 10.9165C47.352 11.2488 47.4253 11.5362 47.572 11.7789C47.7186 12.0216 47.9086 12.2101 48.1417 12.3445C48.3786 12.4752 48.6306 12.5405 48.8975 12.5405C49.1833 12.5405 49.439 12.4733 49.6646 12.3389C49.8903 12.2045 50.0689 12.016 50.2005 11.7733C50.3321 11.5269 50.3979 11.2413 50.3979 10.9165C50.3979 10.5917 50.3321 10.308 50.2005 10.0653C50.0689 9.8189 49.8903 9.6285 49.6646 9.4941C49.439 9.35599 49.1833 9.2869 48.8975 9.2869C48.6306 9.2869 48.3786 9.3541 48.1417 9.4885C47.9086 9.6229 47.7186 9.81141 47.572 10.0541C47.4253 10.2968 47.352 10.5842 47.352 10.9165ZM53.3497 11.1125C53.3535 11.3888 53.4137 11.6408 53.5302 11.8685C53.6468 12.0962 53.8198 12.2773 54.0492 12.4117C54.2823 12.5461 54.5681 12.6133 54.9065 12.6133C55.1924 12.6133 55.4349 12.5722 55.6342 12.4901C55.8372 12.4042 56.0027 12.3034 56.1305 12.1877C56.2584 12.0682 56.3505 11.9618 56.4069 11.8685L56.8864 12.4565C56.7623 12.6357 56.61 12.7925 56.4295 12.9269C56.2528 13.0613 56.0366 13.164 55.7808 13.2349C55.5252 13.3096 55.213 13.3469 54.8445 13.3469C54.3481 13.3469 53.9176 13.2424 53.5528 13.0333C53.1918 12.8205 52.9136 12.5274 52.718 12.1541C52.5224 11.777 52.4247 11.3458 52.4247 10.8605C52.4247 10.4125 52.5168 10.0093 52.701 9.6509C52.8854 9.28879 53.1523 9.00319 53.502 8.7941C53.8555 8.58501 54.2804 8.4805 54.7768 8.4805C55.2319 8.4805 55.6267 8.5757 55.9613 8.7661C56.2998 8.95279 56.5611 9.21781 56.7454 9.5613C56.9334 9.90479 57.0274 10.3154 57.0274 10.7933C57.0274 10.8232 57.0256 10.8773 57.0218 10.9557C57.018 11.0304 57.0143 11.0826 57.0105 11.1125H53.3497ZM56.0911 10.3789C56.0873 10.2258 56.0422 10.0578 55.9557 9.8749C55.873 9.69199 55.7376 9.53519 55.5496 9.4045C55.3616 9.27381 55.1078 9.2085 54.7881 9.2085C54.4572 9.2085 54.1902 9.27199 53.9871 9.3989C53.7879 9.52581 53.6412 9.68079 53.5471 9.8637C53.4532 10.0429 53.3986 10.2146 53.3836 10.3789H56.0911ZM60.7001 8.4805C61.0047 8.4805 61.2999 8.54399 61.5857 8.6709C61.8753 8.79781 62.1122 8.99941 62.2964 9.2757C62.4845 9.54821 62.5785 9.90479 62.5785 10.3453V13.2125H61.5857V10.5357C61.5857 10.0802 61.4785 9.74981 61.2642 9.5445C61.0499 9.33541 60.7735 9.2309 60.435 9.2309C60.2132 9.2309 59.9989 9.29439 59.792 9.4213C59.5889 9.5445 59.4216 9.71621 59.29 9.9365C59.1584 10.153 59.0926 10.3994 59.0926 10.6757V13.2125H58.1111V8.6149H59.0926V9.4325C59.1264 9.30559 59.2186 9.16741 59.369 9.0181C59.5194 8.86879 59.7112 8.74181 59.9443 8.6373C60.1775 8.53279 60.4294 8.4805 60.7001 8.4805ZM63.4671 8.6149H64.3752V6.7277H65.351V8.6149H66.5412V9.4493H65.351V11.7229C65.351 11.9917 65.398 12.1896 65.4921 12.3165C65.5898 12.4434 65.7195 12.5069 65.8813 12.5069C66.0241 12.5069 66.1351 12.4808 66.2141 12.4285C66.293 12.3762 66.34 12.3408 66.3551 12.3221L66.7443 13.0389C66.7217 13.0576 66.6615 13.093 66.5638 13.1453C66.466 13.1976 66.34 13.2442 66.1859 13.2853C66.0317 13.3264 65.8512 13.3469 65.6444 13.3469C65.2834 13.3469 64.9806 13.2386 64.7362 13.0221C64.4955 12.8018 64.3752 12.4546 64.3752 11.9805V9.4493H63.4671V8.6149ZM70.4341 5.8205H74.3151V6.6885H71.3933V9.0741H74.1177V9.9365H71.3933V13.2125H70.4341V5.8205ZM77.397 13.3469C76.919 13.3469 76.4945 13.2405 76.1222 13.0277C75.7535 12.8149 75.4637 12.5274 75.2536 12.1653C75.0427 11.7994 74.9377 11.3869 74.9377 10.9277C74.9377 10.4685 75.0427 10.0541 75.2536 9.6845C75.4637 9.3149 75.7535 9.02181 76.1222 8.8053C76.4945 8.58879 76.919 8.4805 77.397 8.4805C77.8708 8.4805 78.2896 8.58879 78.6549 8.8053C79.0229 9.02181 79.3106 9.3149 79.5179 9.6845C79.7245 10.0541 79.8281 10.4685 79.8281 10.9277C79.8281 11.3869 79.7245 11.7994 79.5179 12.1653C79.3106 12.5274 79.0229 12.8149 78.6549 13.0277C78.2896 13.2405 77.8708 13.3469 77.397 13.3469ZM77.397 12.5125C77.6974 12.5125 77.9589 12.4434 78.181 12.3053C78.4067 12.1672 78.5815 11.9786 78.7056 11.7397C78.8297 11.497 78.8918 11.2245 78.8918 10.9221C78.8918 10.6197 78.8297 10.3472 78.7056 10.1045C78.5815 9.86181 78.4067 9.66959 78.181 9.5277C77.9589 9.38581 77.6974 9.3149 77.397 9.3149C77.0924 9.3149 76.8273 9.38581 76.6017 9.5277C76.376 9.66959 76.1991 9.86181 76.0715 10.1045C75.9474 10.3472 75.8853 10.6197 75.8853 10.9221C75.8853 11.2245 75.9474 11.497 76.0715 11.7397C76.1991 11.9786 76.376 12.1672 76.6017 12.3053C76.8273 12.4434 77.0924 12.5125 77.397 12.5125ZM81.8806 13.2125H80.9048V8.6149H81.8806V9.4101H81.8524C81.8714 9.31301 81.9405 9.1917 82.0611 9.0461C82.1816 8.9005 82.3466 8.76981 82.5575 8.6541C82.7683 8.53839 83.02 8.4805 83.3133 8.4805C83.5276 8.4805 83.7159 8.51039 83.8774 8.5701C84.0431 8.6261 84.1594 8.6821 84.2271 8.7381L83.8266 9.5445C83.7737 9.49221 83.6821 9.43999 83.5502 9.3877C83.4184 9.3317 83.2548 9.3037 83.0595 9.3037C82.8113 9.3037 82.5991 9.38021 82.4221 9.5333C82.2451 9.68639 82.1097 9.87119 82.016 10.0877C81.9257 10.3005 81.8806 10.4984 81.8806 10.6813V13.2125ZM90.4162 8.4805C90.7582 8.4805 91.0515 8.55519 91.2962 8.7045C91.5401 8.8501 91.7263 9.0741 91.8546 9.3765C91.9857 9.6789 92.052 10.0653 92.052 10.5357V13.2125H91.0818V10.7317C91.0818 10.2352 91.012 9.86181 90.8731 9.6117C90.7335 9.36159 90.4797 9.2365 90.1116 9.2365C89.9156 9.2365 89.7281 9.29061 89.5476 9.3989C89.3706 9.50341 89.224 9.66581 89.1076 9.8861C88.9948 10.1064 88.9384 10.3882 88.9384 10.7317V13.2125H88.0246V10.7317C88.0246 10.2352 87.9379 9.86181 87.7652 9.6117C87.5917 9.36159 87.3492 9.2365 87.0375 9.2365C86.838 9.2365 86.6497 9.28879 86.4734 9.3933C86.3 9.4941 86.159 9.65461 86.0504 9.8749C85.9411 10.0952 85.8868 10.3808 85.8868 10.7317V13.2125H84.911V8.6149H85.8868V9.3205C85.9277 9.20479 86.0166 9.08159 86.1519 8.9509C86.2908 8.82021 86.4678 8.7101 86.6822 8.6205C86.9 8.52719 87.1426 8.4805 87.4098 8.4805C87.6876 8.4805 87.921 8.5365 88.1092 8.6485C88.2968 8.7605 88.4455 8.89861 88.5548 9.0629C88.6634 9.22341 88.7389 9.37839 88.7805 9.5277C88.8326 9.36719 88.9342 9.20661 89.0851 9.0461C89.2352 8.88181 89.4249 8.74741 89.6548 8.6429C89.8839 8.53461 90.1377 8.4805 90.4162 8.4805ZM95.1466 8.4805C95.387 8.4805 95.6105 8.50479 95.8178 8.5533C96.0279 8.60181 96.2084 8.6597 96.3593 8.7269C96.513 8.7941 96.6223 8.85381 96.6865 8.9061L96.2973 9.5221C96.2218 9.4549 96.0865 9.38021 95.8912 9.2981C95.6952 9.21221 95.4773 9.1693 95.2368 9.1693C94.9732 9.1693 94.7496 9.22159 94.5656 9.3261C94.3809 9.4269 94.2892 9.57439 94.2892 9.7685C94.2892 9.96261 94.383 10.1176 94.5713 10.2333C94.763 10.3453 95.0183 10.4386 95.3384 10.5133C95.5936 10.573 95.8326 10.6533 96.0547 10.7541C96.2804 10.8549 96.4623 10.9949 96.6019 11.1741C96.7408 11.3496 96.8106 11.5848 96.8106 11.8797C96.8106 12.1485 96.7542 12.3781 96.6414 12.5685C96.5286 12.7552 96.3763 12.9064 96.1845 13.0221C95.9927 13.1341 95.7784 13.2162 95.5414 13.2685C95.3045 13.3208 95.0634 13.3469 94.8194 13.3469C94.5332 13.3469 94.2758 13.317 94.0467 13.2573C93.8168 13.2013 93.6236 13.1341 93.4657 13.0557C93.3113 12.9736 93.1985 12.9026 93.1273 12.8429L93.5165 12.1485C93.6138 12.2418 93.7738 12.3408 93.9959 12.4453C94.2215 12.5498 94.4768 12.6021 94.763 12.6021C95.0789 12.6021 95.3342 12.5368 95.5302 12.4061C95.7255 12.2717 95.8235 12.0981 95.8235 11.8853C95.8235 11.7248 95.7762 11.596 95.6825 11.4989C95.588 11.4018 95.4625 11.3234 95.3045 11.2637C95.1466 11.204 94.9732 11.1517 94.7856 11.1069C94.6051 11.0658 94.4281 11.0117 94.2554 10.9445C94.0862 10.8773 93.9296 10.7914 93.7872 10.6869C93.6476 10.5786 93.5369 10.448 93.4544 10.2949C93.3712 10.1381 93.3303 9.95519 93.3303 9.7461C93.3303 9.48101 93.4149 9.25519 93.5842 9.0685C93.7534 8.8781 93.9748 8.7325 94.2497 8.6317C94.524 8.5309 94.823 8.4805 95.1466 8.4805Z" fill="#023E7D"/>
<rect x="3.08734" y="3.0625" width="14.9956" height="14" rx="6" fill="#023E7D"/>
<path d="M13.078 13.5625H6.32812C6.28743 13.5625 6.24843 13.5463 6.21963 13.5176C6.19088 13.4889 6.17468 13.4498 6.17468 13.4092V5.40331C6.17468 5.36265 6.19088 5.32365 6.21963 5.2949C6.24843 5.26615 6.28743 5.25 6.32812 5.25H11.2832C11.3033 5.25049 11.3231 5.25493 11.3416 5.26308C11.36 5.27124 11.3767 5.28294 11.3906 5.29752L13.1854 7.15562C13.2136 7.1832 13.23 7.22054 13.2314 7.2599V13.4076C13.2316 13.4279 13.2278 13.448 13.2202 13.4668C13.2126 13.4856 13.2013 13.5026 13.187 13.517C13.1728 13.5314 13.1558 13.5429 13.1371 13.5507C13.1184 13.5585 13.0983 13.5625 13.078 13.5625ZM6.48155 13.2559H12.9246V7.32275L11.2188 5.55662H6.48155V13.2559Z" fill="#EFF5F9"/>
<path d="M6.48155 13.2559H12.9246V7.32275L11.2188 5.55662H6.48155V13.2559Z" fill="#023E7D"/>
<path d="M14.4011 14.4375H7.65125C7.61056 14.4375 7.57156 14.4213 7.54276 14.3926C7.51402 14.3639 7.49782 14.3248 7.49782 14.2842V6.27831C7.49782 6.23765 7.51402 6.19865 7.54276 6.1699C7.57156 6.14115 7.61056 6.125 7.65125 6.125H12.6063C12.6264 6.12549 12.6463 6.12993 12.6647 6.13808C12.6832 6.14624 12.6998 6.15794 12.7137 6.17252L14.5085 8.03062C14.5367 8.0582 14.5532 8.09554 14.5546 8.1349V14.2826C14.5547 14.3029 14.5509 14.323 14.5433 14.3418C14.5357 14.3606 14.5244 14.3776 14.5102 14.392C14.4959 14.4064 14.4789 14.4179 14.4602 14.4257C14.4415 14.4335 14.4214 14.4375 14.4011 14.4375ZM7.80469 14.1309H14.2477V8.19775L12.5419 6.43162H7.80469V14.1309Z" fill="#EFF5F9"/>
<path d="M7.80469 14.1309H14.2477V8.19775L12.5419 6.43162H7.80469V14.1309Z" fill="#023E7D"/>
<path d="M13.0783 10.3589H8.53303C8.49246 10.3589 8.45348 10.3433 8.42478 10.3155C8.39603 10.2877 8.37991 10.25 8.37991 10.2107C8.37991 10.1714 8.39603 10.1337 8.42478 10.1059C8.45348 10.0781 8.49246 10.0625 8.53303 10.0625H13.0783C13.1189 10.0625 13.1579 10.0781 13.1866 10.1059C13.2153 10.1337 13.2314 10.1714 13.2314 10.2107C13.2314 10.25 13.2153 10.2877 13.1866 10.3155C13.1579 10.3433 13.1189 10.3589 13.0783 10.3589ZM13.0783 11.5225H8.53303C8.49246 11.5225 8.45348 11.5069 8.42478 11.4791C8.39603 11.4513 8.37991 11.4136 8.37991 11.3743C8.37991 11.335 8.39603 11.2972 8.42478 11.2695C8.45348 11.2416 8.49246 11.226 8.53303 11.226H13.0783C13.1189 11.226 13.1579 11.2416 13.1866 11.2695C13.2153 11.2972 13.2314 11.335 13.2314 11.3743C13.2314 11.4136 13.2153 11.4513 13.1866 11.4791C13.1579 11.5069 13.1189 11.5225 13.0783 11.5225ZM13.0783 12.6875H8.53303C8.49246 12.6875 8.45348 12.6719 8.42478 12.6441C8.39603 12.6163 8.37991 12.5786 8.37991 12.5393C8.37991 12.5 8.39603 12.4623 8.42478 12.4345C8.45348 12.4067 8.49246 12.3911 8.53303 12.3911H13.0783C13.1189 12.3911 13.1579 12.4067 13.1866 12.4345C13.2153 12.4623 13.2314 12.5 13.2314 12.5393C13.2314 12.5786 13.2153 12.6163 13.1866 12.6441C13.1579 12.6719 13.1189 12.6875 13.0783 12.6875Z" fill="#EFF5F9" stroke="#EFF5F9" stroke-width="0.2"/>
<path d="M9.70306 7.4375H10.1441V8.3125V9.1875H9.70306V7.4375ZM10.615 7.4375H11.9083V7.78485L11.0262 7.78485V8.1375L11.849 8.1375V8.48352L11.0262 8.48352V9.1875L10.615 9.1875V7.4375Z" fill="#EFF5F9"/>
</svg>
