<svg width="150" height="28" viewBox="0 0 150 28" fill="none" xmlns="http://www.w3.org/2000/svg">
<path d="M33 7.45545H34.4527V18.191H33V7.45545ZM40.6502 11.3186C41.1063 11.3186 41.5482 11.4108 41.9762 11.5952C42.4097 11.7795 42.7644 12.0723 43.0404 12.4735C43.3218 12.8693 43.4627 13.3872 43.4627 14.0269V18.191H41.9762V14.3035C41.9762 13.6419 41.8157 13.1621 41.4948 12.8639C41.1739 12.5602 40.76 12.4085 40.2533 12.4085C39.921 12.4085 39.6001 12.5007 39.2904 12.685C38.9864 12.8639 38.7358 13.1133 38.5388 13.4332C38.3417 13.7477 38.2432 14.1055 38.2432 14.5068V18.191H36.7736V11.5138H38.2432V12.7013C38.2938 12.5169 38.4317 12.3163 38.657 12.0994C38.8822 11.8826 39.1694 11.6981 39.5185 11.5464C39.8675 11.3946 40.2448 11.3186 40.6502 11.3186ZM44.7931 11.5138H46.1529V8.773H47.614V11.5138H49.3961V12.7257H47.614V16.0277C47.614 16.418 47.6844 16.7054 47.8252 16.8898C47.9716 17.0741 48.1658 17.1663 48.4079 17.1663C48.6219 17.1663 48.788 17.1284 48.9062 17.0524C49.0245 16.9765 49.0949 16.925 49.1174 16.8979L49.7001 17.9389C49.6663 17.9661 49.5763 18.0175 49.4299 18.0934C49.2835 18.1694 49.0949 18.2371 48.864 18.2968C48.6332 18.3565 48.3629 18.3862 48.0532 18.3862C47.5127 18.3862 47.0594 18.229 46.6934 17.9145C46.3331 17.5946 46.1529 17.0903 46.1529 16.4018V12.7257H44.7931V11.5138ZM51.897 15.1412C51.9026 15.5424 51.9927 15.9084 52.1672 16.2391C52.3418 16.5698 52.6008 16.8328 52.9443 17.028C53.2934 17.2232 53.7213 17.3208 54.228 17.3208C54.6559 17.3208 55.0191 17.2611 55.3175 17.1419C55.6216 17.0171 55.8694 16.8708 56.0608 16.7027C56.2522 16.5292 56.3902 16.3746 56.4746 16.2391L57.1925 17.0931C57.0067 17.3533 56.7787 17.5811 56.5084 17.7763C56.2437 17.9715 55.92 18.1206 55.5371 18.2236C55.1542 18.3321 54.687 18.3862 54.1351 18.3862C53.3919 18.3862 52.7472 18.2345 52.201 17.9308C51.6605 17.6217 51.2438 17.1961 50.9511 16.6539C50.6583 16.1062 50.5119 15.48 50.5119 14.7752C50.5119 14.1245 50.6499 13.539 50.9257 13.0184C51.2016 12.4925 51.6014 12.0778 52.125 11.7741C52.6543 11.4704 53.2905 11.3186 54.0338 11.3186C54.715 11.3186 55.3062 11.4569 55.8074 11.7334C56.3141 12.0046 56.7055 12.3895 56.9814 12.8883C57.2629 13.3872 57.4037 13.9835 57.4037 14.6776C57.4037 14.721 57.4008 14.7996 57.3952 14.9134C57.3896 15.0219 57.3839 15.0978 57.3783 15.1412H51.897ZM56.0016 14.0757C55.9961 13.8534 55.9285 13.6094 55.799 13.3438C55.6751 13.0781 55.4724 12.8504 55.1909 12.6606C54.9093 12.4708 54.5292 12.3759 54.0507 12.3759C53.5552 12.3759 53.1554 12.4681 52.8514 12.6525C52.5529 12.8368 52.3333 13.0619 52.1926 13.3275C52.0519 13.5878 51.9701 13.8371 51.9477 14.0757H56.0016ZM60.555 18.191H59.077V7H60.555V18.191ZM64.2005 18.191H62.7225V7H64.2005V18.191ZM66.4779 18.191V11.5138H67.9475V18.191H66.4779ZM67.2296 9.22845C66.965 9.22845 66.7369 9.13899 66.5454 8.96006C66.3597 8.77575 66.2668 8.55615 66.2668 8.30129C66.2668 8.04642 66.3597 7.82682 66.5454 7.64251C66.7369 7.45819 66.965 7.36599 67.2296 7.36599C67.4041 7.36599 67.5646 7.4094 67.711 7.49611C67.8631 7.58283 67.984 7.6967 68.0742 7.8377C68.1643 7.97322 68.2093 8.12775 68.2093 8.30129C68.2093 8.55615 68.1136 8.77575 67.9222 8.96006C67.7307 9.13899 67.4999 9.22845 67.2296 9.22845ZM73.5047 21.7614C72.9585 21.7614 72.4631 21.7073 72.0182 21.5988C71.579 21.4903 71.1934 21.3358 70.8611 21.1352C70.5346 20.94 70.2728 20.7095 70.0757 20.4439L71.0385 19.5574C71.1455 19.6984 71.2891 19.8474 71.4692 20.0047C71.655 20.1674 71.9056 20.3056 72.2209 20.4195C72.5362 20.5334 72.9472 20.5903 73.454 20.5903C73.9495 20.5903 74.369 20.4873 74.7124 20.2812C75.0559 20.0807 75.3178 19.8068 75.4979 19.4598C75.6781 19.1128 75.7681 18.7224 75.7681 18.2886V18.0691H77.2039V18.3781C77.2039 19.1155 77.0379 19.7336 76.7056 20.2324C76.3791 20.7367 75.937 21.1162 75.3796 21.3711C74.8222 21.6313 74.1972 21.7614 73.5047 21.7614ZM75.7681 18.191V16.8898C75.7232 17.0253 75.5908 17.2123 75.3712 17.4509C75.1573 17.6895 74.8617 17.9064 74.4844 18.1016C74.1128 18.2914 73.6736 18.3862 73.1668 18.3862C72.5249 18.3862 71.9422 18.2398 71.4185 17.9471C70.9006 17.6543 70.4868 17.2449 70.177 16.719C69.873 16.1876 69.7209 15.5668 69.7209 14.8565C69.7209 14.1462 69.873 13.5281 70.177 13.0022C70.4868 12.4708 70.9006 12.0587 71.4185 11.766C71.9422 11.4678 72.5249 11.3186 73.1668 11.3186C73.668 11.3186 74.1016 11.4054 74.4675 11.5789C74.8391 11.7524 75.1347 11.953 75.3543 12.1807C75.5796 12.4085 75.7119 12.6037 75.7512 12.7663V11.5138H77.2039V18.191H75.7681ZM71.1736 14.8565C71.1736 15.3391 71.2834 15.7565 71.503 16.109C71.7226 16.4615 72.007 16.7352 72.356 16.9304C72.7107 17.1202 73.0881 17.2151 73.4878 17.2151C73.9158 17.2151 74.2986 17.1175 74.6364 16.9223C74.9742 16.7271 75.2417 16.4533 75.4387 16.1009C75.6359 15.743 75.7343 15.3282 75.7343 14.8565C75.7343 14.3848 75.6359 13.9727 75.4387 13.6203C75.2417 13.2624 74.9742 12.9859 74.6364 12.7907C74.2986 12.5901 73.9158 12.4898 73.4878 12.4898C73.0881 12.4898 72.7107 12.5874 72.356 12.7826C72.007 12.9778 71.7226 13.2516 71.503 13.604C71.2834 13.9565 71.1736 14.3739 71.1736 14.8565ZM80.1542 15.1412C80.1599 15.5424 80.2499 15.9084 80.4244 16.2391C80.599 16.5698 80.858 16.8328 81.2014 17.028C81.5506 17.2232 81.9784 17.3208 82.4852 17.3208C82.9132 17.3208 83.2764 17.2611 83.5747 17.1419C83.8788 17.0171 84.1265 16.8708 84.3179 16.7027C84.5094 16.5292 84.6473 16.3746 84.7318 16.2391L85.4497 17.0931C85.2639 17.3533 85.0358 17.5811 84.7656 17.7763C84.501 17.9715 84.1772 18.1206 83.7943 18.2236C83.4115 18.3321 82.9441 18.3862 82.3923 18.3862C81.6491 18.3862 81.0044 18.2345 80.4582 17.9308C79.9177 17.6217 79.5011 17.1961 79.2082 16.6539C78.9155 16.1062 78.769 15.48 78.769 14.7752C78.769 14.1245 78.907 13.539 79.1829 13.0184C79.4589 12.4925 79.8585 12.0778 80.3822 11.7741C80.9115 11.4704 81.5477 11.3186 82.2909 11.3186C82.9723 11.3186 83.5635 11.4569 84.0646 11.7334C84.5713 12.0046 84.9627 12.3895 85.2385 12.8883C85.5201 13.3872 85.6608 13.9835 85.6608 14.6776C85.6608 14.721 85.6581 14.7996 85.6524 14.9134C85.6468 15.0219 85.6412 15.0978 85.6355 15.1412H80.1542ZM84.2588 14.0757C84.2532 13.8534 84.1857 13.6094 84.0561 13.3438C83.9323 13.0781 83.7296 12.8504 83.448 12.6606C83.1666 12.4708 82.7865 12.3759 82.3078 12.3759C81.8124 12.3759 81.4126 12.4681 81.1085 12.6525C80.8102 12.8368 80.5906 13.0619 80.4498 13.3275C80.309 13.5878 80.2274 13.8371 80.2048 14.0757H84.2588ZM91.1601 11.3186C91.6162 11.3186 92.0582 11.4108 92.4861 11.5952C92.9197 11.7795 93.2744 12.0723 93.5503 12.4735C93.8318 12.8693 93.9726 13.3872 93.9726 14.0269V18.191H92.4861V14.3035C92.4861 13.6419 92.3256 13.1621 92.0047 12.8639C91.6837 12.5602 91.2699 12.4085 90.7632 12.4085C90.431 12.4085 90.1101 12.5007 89.8003 12.685C89.4963 12.8639 89.2458 13.1133 89.0487 13.4332C88.8517 13.7477 88.753 14.1055 88.753 14.5068V18.191H87.2835V11.5138H88.753V12.7013C88.8037 12.5169 88.9417 12.3163 89.1669 12.0994C89.3922 11.8826 89.6793 11.6981 90.0284 11.5464C90.3775 11.3946 90.7547 11.3186 91.1601 11.3186ZM95.3031 11.5138H96.6629V8.773H98.124V11.5138H99.9061V12.7257H98.124V16.0277C98.124 16.418 98.1943 16.7054 98.3351 16.8898C98.4815 17.0741 98.6757 17.1663 98.9179 17.1663C99.1318 17.1663 99.298 17.1284 99.4162 17.0524C99.5344 16.9765 99.6048 16.925 99.6273 16.8979L100.21 17.9389C100.176 17.9661 100.086 18.0175 99.9398 18.0934C99.7934 18.1694 99.6048 18.2371 99.374 18.2968C99.1431 18.3565 98.8728 18.3862 98.5632 18.3862C98.0226 18.3862 97.5693 18.229 97.2034 17.9145C96.843 17.5946 96.6629 17.0903 96.6629 16.4018V12.7257H95.3031V11.5138ZM105.735 7.45545H111.546V8.71607H107.171V12.1807H111.25V13.4332H107.171V18.191H105.735V7.45545ZM116.161 18.3862C115.445 18.3862 114.809 18.2317 114.252 17.9227C113.7 17.6136 113.266 17.1961 112.951 16.6702C112.636 16.1388 112.478 15.5397 112.478 14.8728C112.478 14.2059 112.636 13.604 112.951 13.0672C113.266 12.5305 113.7 12.1048 114.252 11.7904C114.809 11.4759 115.445 11.3186 116.161 11.3186C116.87 11.3186 117.497 11.4759 118.044 11.7904C118.595 12.1048 119.026 12.5305 119.336 13.0672C119.646 13.604 119.801 14.2059 119.801 14.8728C119.801 15.5397 119.646 16.1388 119.336 16.6702C119.026 17.1961 118.595 17.6136 118.044 17.9227C117.497 18.2317 116.87 18.3862 116.161 18.3862ZM116.161 17.1744C116.61 17.1744 117.002 17.0741 117.335 16.8735C117.672 16.6729 117.934 16.399 118.12 16.0521C118.306 15.6996 118.399 15.3038 118.399 14.8646C118.399 14.4255 118.306 14.0297 118.12 13.6772C117.934 13.3248 117.672 13.0456 117.335 12.8395C117.002 12.6334 116.61 12.5305 116.161 12.5305C115.705 12.5305 115.308 12.6334 114.97 12.8395C114.632 13.0456 114.367 13.3248 114.176 13.6772C113.99 14.0297 113.897 14.4255 113.897 14.8646C113.897 15.3038 113.99 15.6996 114.176 16.0521C114.367 16.399 114.632 16.6729 114.97 16.8735C115.308 17.0741 115.705 17.1744 116.161 17.1744ZM122.874 18.191H121.413V11.5138H122.874V12.6687H122.832C122.86 12.5277 122.964 12.3515 123.144 12.1401C123.325 11.9286 123.572 11.7388 123.888 11.5708C124.203 11.4027 124.58 11.3186 125.019 11.3186C125.34 11.3186 125.622 11.362 125.864 11.4488C126.112 11.5301 126.286 11.6114 126.387 11.6928L125.788 12.8639C125.709 12.788 125.571 12.7121 125.374 12.6362C125.177 12.5549 124.932 12.5142 124.639 12.5142C124.268 12.5142 123.95 12.6253 123.685 12.8476C123.42 13.07 123.217 13.3384 123.077 13.6528C122.942 13.9619 122.874 14.2493 122.874 14.5149V18.191ZM135.655 11.3186C136.167 11.3186 136.606 11.4271 136.972 11.644C137.337 11.8554 137.616 12.1807 137.808 12.6199C138.005 13.0591 138.104 13.6203 138.104 14.3035V18.191H136.651V14.5881C136.651 13.867 136.547 13.3248 136.339 12.9615C136.13 12.5983 135.75 12.4166 135.199 12.4166C134.905 12.4166 134.624 12.4952 134.354 12.6525C134.089 12.8042 133.869 13.0401 133.695 13.36C133.526 13.68 133.442 14.0893 133.442 14.5881V18.191H132.074V14.5881C132.074 13.867 131.944 13.3248 131.685 12.9615C131.425 12.5983 131.062 12.4166 130.596 12.4166C130.297 12.4166 130.015 12.4925 129.751 12.6443C129.491 12.7907 129.28 13.0238 129.118 13.3438C128.954 13.6637 128.873 14.0785 128.873 14.5881V18.191H127.412V11.5138H128.873V12.5386C128.934 12.3705 129.067 12.1916 129.27 12.0018C129.478 11.812 129.743 11.6521 130.064 11.522C130.39 11.3864 130.753 11.3186 131.153 11.3186C131.569 11.3186 131.918 11.4 132.2 11.5626C132.481 11.7253 132.704 11.9259 132.868 12.1645C133.03 12.3976 133.143 12.6227 133.205 12.8395C133.284 12.6064 133.436 12.3732 133.661 12.1401C133.886 11.9015 134.17 11.7063 134.514 11.5545C134.858 11.3972 135.238 11.3186 135.655 11.3186ZM142.738 11.3186C143.098 11.3186 143.432 11.3539 143.743 11.4244C144.057 11.4948 144.327 11.5789 144.553 11.6765C144.784 11.7741 144.947 11.8608 145.043 11.9367L144.46 12.8314C144.348 12.7338 144.145 12.6253 143.852 12.5061C143.559 12.3813 143.233 12.319 142.873 12.319C142.478 12.319 142.143 12.3949 141.868 12.5467C141.591 12.6931 141.454 12.9073 141.454 13.1892C141.454 13.4711 141.594 13.6962 141.876 13.8643C142.163 14.0269 142.545 14.1625 143.025 14.2709C143.407 14.3576 143.765 14.4743 144.097 14.6206C144.435 14.767 144.708 14.9704 144.917 15.2306C145.125 15.4855 145.229 15.8271 145.229 16.2554C145.229 16.6458 145.145 16.9792 144.976 17.2557C144.807 17.5269 144.579 17.7465 144.292 17.9145C144.004 18.0772 143.683 18.1964 143.329 18.2724C142.974 18.3483 142.613 18.3862 142.248 18.3862C141.819 18.3862 141.434 18.3428 141.091 18.2561C140.746 18.1748 140.457 18.0772 140.221 17.9633C139.989 17.8441 139.821 17.741 139.714 17.6543L140.297 16.6458C140.442 16.7813 140.682 16.925 141.015 17.0768C141.352 17.2286 141.735 17.3045 142.163 17.3045C142.636 17.3045 143.018 17.2097 143.312 17.0199C143.604 16.8247 143.751 16.5726 143.751 16.2635C143.751 16.0304 143.68 15.8433 143.54 15.7023C143.398 15.5613 143.211 15.4475 142.974 15.3608C142.738 15.274 142.478 15.1981 142.197 15.133C141.927 15.0734 141.662 14.9948 141.403 14.8972C141.15 14.7996 140.915 14.6748 140.702 14.5231C140.493 14.3658 140.327 14.1761 140.204 13.9537C140.079 13.726 140.018 13.4604 140.018 13.1567C140.018 12.7717 140.145 12.4437 140.398 12.1726C140.651 11.8961 140.983 11.6846 141.395 11.5382C141.805 11.3918 142.253 11.3186 142.738 11.3186Z" fill="#023E7D"/>
<rect x="4.62274" y="4.57556" width="22.4533" height="20.3326" rx="6" fill="#023E7D"/>
<path d="M19.582 19.825H9.47522C9.4143 19.825 9.3559 19.8015 9.31278 19.7598C9.26974 19.7181 9.24548 19.6614 9.24548 19.6023V7.97522C9.24548 7.91616 9.26974 7.85953 9.31278 7.81777C9.3559 7.77602 9.4143 7.75256 9.47522 7.75256H16.8945C16.9247 7.75327 16.9544 7.75972 16.982 7.77156C17.0096 7.78341 17.0345 7.8004 17.0553 7.82158L19.7428 10.5201C19.7849 10.5602 19.8096 10.6144 19.8117 10.6716V19.6001C19.812 19.6296 19.8063 19.6588 19.7949 19.686C19.7835 19.7133 19.7666 19.7381 19.7453 19.759C19.7239 19.7799 19.6985 19.7965 19.6704 19.8078C19.6424 19.8192 19.6124 19.825 19.582 19.825ZM9.70496 19.3797H19.3523V10.7629L16.7981 8.19788H9.70496V19.3797Z" fill="#F0F4F8"/>
<path d="M9.70496 19.3797H19.3523V10.7629L16.7981 8.19788H9.70496V19.3797Z" fill="#023E7D"/>
<path d="M21.5632 21.0958H11.4564C11.3955 21.0958 11.3371 21.0723 11.294 21.0305C11.2509 20.9888 11.2267 20.9321 11.2267 20.8731V9.24597C11.2267 9.18691 11.2509 9.13029 11.294 9.08853C11.3371 9.04677 11.3955 9.02332 11.4564 9.02332H18.8757C18.9058 9.02402 18.9356 9.03047 18.9632 9.04232C18.9908 9.05416 19.0157 9.07116 19.0365 9.09233L21.724 11.7909C21.7661 11.831 21.7908 11.8852 21.7929 11.9423V20.8709C21.7931 20.9003 21.7874 20.9295 21.7761 20.9568C21.7646 20.9841 21.7477 21.0089 21.7264 21.0298C21.705 21.0507 21.6796 21.0673 21.6516 21.0786C21.6236 21.0899 21.5935 21.0958 21.5632 21.0958ZM11.6861 20.6505H21.3334V12.0336L18.7792 9.46863H11.6861V20.6505Z" fill="#F0F4F8"/>
<path d="M11.6861 20.6505H21.3334V12.0336L18.7792 9.46863H11.6861V20.6505Z" fill="#023E7D"/>
<path d="M19.5824 15.1724H12.7767C12.7159 15.1724 12.6576 15.1497 12.6146 15.1093C12.5716 15.069 12.5474 15.0141 12.5474 14.9571C12.5474 14.9 12.5716 14.8452 12.6146 14.8049C12.6576 14.7645 12.7159 14.7418 12.7767 14.7418H19.5824C19.6432 14.7418 19.7016 14.7645 19.7445 14.8049C19.7876 14.8452 19.8117 14.9 19.8117 14.9571C19.8117 15.0141 19.7876 15.069 19.7445 15.1093C19.7016 15.1497 19.6432 15.1724 19.5824 15.1724ZM19.5824 16.8622H12.7767C12.7159 16.8622 12.6576 16.8395 12.6146 16.7991C12.5716 16.7588 12.5474 16.7041 12.5474 16.647C12.5474 16.5899 12.5716 16.5351 12.6146 16.4947C12.6576 16.4543 12.7159 16.4317 12.7767 16.4317H19.5824C19.6432 16.4317 19.7016 16.4543 19.7445 16.4947C19.7876 16.5351 19.8117 16.5899 19.8117 16.647C19.8117 16.7041 19.7876 16.7588 19.7445 16.7991C19.7016 16.8395 19.6432 16.8622 19.5824 16.8622ZM19.5824 18.5542H12.7767C12.7159 18.5542 12.6576 18.5315 12.6146 18.4912C12.5716 18.4508 12.5474 18.396 12.5474 18.3389C12.5474 18.2819 12.5716 18.2271 12.6146 18.1867C12.6576 18.1464 12.7159 18.1236 12.7767 18.1236H19.5824C19.6432 18.1236 19.7016 18.1464 19.7445 18.1867C19.7876 18.2271 19.8117 18.2819 19.8117 18.3389C19.8117 18.396 19.7876 18.4508 19.7445 18.4912C19.7016 18.5315 19.6432 18.5542 19.5824 18.5542Z" fill="#F0F4F8" stroke="#F0F4F8" stroke-width="0.2"/>
<path d="M14.5286 10.9294H15.189V12.2002V13.471H14.5286V10.9294ZM15.8941 10.9294H17.8306V11.4339L16.5098 11.4339V11.9461L17.7417 11.9461V12.4486L16.5098 12.4486V13.471L15.8941 13.471V10.9294Z" fill="#F0F4F8"/>
</svg>
