<svg width="24" height="24" viewBox="0 0 24 24" fill="none" xmlns="http://www.w3.org/2000/svg">
<path d="M8 7V10L15 10L15 14L8 14L8 17L3 12L8 7ZM10 22C9.46957 22 8.96086 21.7893 8.58579 21.4142C8.21071 21.0391 8 20.5304 8 20V18H10V20H19L19 4H10V6H8V4C8 3.46957 8.21071 2.96086 8.58579 2.58579C8.96086 2.21071 9.46957 2 10 2H19C19.5304 2 20.0391 2.21071 20.4142 2.58579C20.7893 2.96086 21 3.46957 21 4L21 20C21 20.5304 20.7893 21.0391 20.4142 21.4142C20.0391 21.7893 19.5304 22 19 22H10Z" fill="#023E7D"/>
</svg>
