<svg width="14" height="14" viewBox="0 0 14 14" fill="none" xmlns="http://www.w3.org/2000/svg">
<path d="M6.99999 6.70836C6.61322 6.70836 6.24228 6.55471 5.96879 6.28122C5.6953 6.00773 5.54166 5.6368 5.54166 5.25002C5.54166 4.86325 5.6953 4.49232 5.96879 4.21883C6.24228 3.94534 6.61322 3.79169 6.99999 3.79169C7.38676 3.79169 7.7577 3.94534 8.03119 4.21883C8.30468 4.49232 8.45832 4.86325 8.45832 5.25002C8.45832 5.44154 8.4206 5.63117 8.34731 5.8081C8.27403 5.98504 8.16661 6.1458 8.03119 6.28122C7.89577 6.41664 7.735 6.52406 7.55807 6.59735C7.38114 6.67064 7.1915 6.70836 6.99999 6.70836ZM6.99999 1.16669C5.91702 1.16669 4.87841 1.5969 4.11264 2.36267C3.34686 3.12845 2.91666 4.16706 2.91666 5.25002C2.91666 8.31252 6.99999 12.8334 6.99999 12.8334C6.99999 12.8334 11.0833 8.31252 11.0833 5.25002C11.0833 4.16706 10.6531 3.12845 9.88734 2.36267C9.12157 1.5969 8.08296 1.16669 6.99999 1.16669Z" fill="#023E7D"/>
</svg>
