<svg width="14" height="14" viewBox="0 0 14 14" fill="none" xmlns="http://www.w3.org/2000/svg">
<path d="M1.75 12.8334L2.625 11.9584L3.5 12.8334L4.375 11.9584L5.25 12.8334L6.125 11.9584L7 12.8334L7.875 11.9584L8.75 12.8334L9.625 11.9584L10.5 12.8334L11.375 11.9584L12.25 12.8334V1.16669L11.375 2.04169L10.5 1.16669L9.625 2.04169L8.75 1.16669L7.875 2.04169L7 1.16669L6.125 2.04169L5.25 1.16669L4.375 2.04169L3.5 1.16669L2.625 2.04169L1.75 1.16669V12.8334ZM10.5 5.25002H3.5V4.08335H10.5V5.25002ZM10.5 7.58335H3.5V6.41669H10.5V7.58335ZM10.5 9.91669H3.5V8.75002H10.5V9.91669Z" fill="#023E7D"/>
</svg>
